<mxfile host="app.diagrams.net" agent="Mozilla/5.0 (Windows NT 10.0; Win64; x64) AppleWebKit/537.36 (KHTML, like Gecko) Chrome/133.0.0.0 Safari/537.36" version="26.0.13">
  <diagram name="Page-1" id="kUHch3_n1idVdhWqojxh">
    <mxGraphModel dx="4498" dy="2975" grid="1" gridSize="10" guides="1" tooltips="1" connect="1" arrows="1" fold="1" page="1" pageScale="1" pageWidth="850" pageHeight="1100" math="0" shadow="0">
      <root>
        <mxCell id="0" />
        <mxCell id="1" parent="0" />
        <mxCell id="CCO-kKmTmHaHIhjf0m-4-120" value="" style="rounded=0;whiteSpace=wrap;html=1;textShadow=0;labelBorderColor=none;labelBackgroundColor=none;gradientColor=none;fillColor=none;" vertex="1" parent="1">
          <mxGeometry x="105" y="-115" width="130" height="70" as="geometry" />
        </mxCell>
        <mxCell id="CCO-kKmTmHaHIhjf0m-4-82" style="edgeStyle=orthogonalEdgeStyle;rounded=0;orthogonalLoop=1;jettySize=auto;html=1;exitX=0;exitY=0.25;exitDx=0;exitDy=0;endArrow=none;startFill=0;" edge="1" parent="1" source="4hJ10KiGVq28Ic1PhPiy-1" target="4hJ10KiGVq28Ic1PhPiy-28">
          <mxGeometry relative="1" as="geometry" />
        </mxCell>
        <mxCell id="CCO-kKmTmHaHIhjf0m-4-83" style="edgeStyle=orthogonalEdgeStyle;rounded=0;orthogonalLoop=1;jettySize=auto;html=1;exitX=0;exitY=0.5;exitDx=0;exitDy=0;entryX=1;entryY=0.5;entryDx=0;entryDy=0;endArrow=none;startFill=0;" edge="1" parent="1" source="4hJ10KiGVq28Ic1PhPiy-1" target="4hJ10KiGVq28Ic1PhPiy-29">
          <mxGeometry relative="1" as="geometry" />
        </mxCell>
        <mxCell id="CCO-kKmTmHaHIhjf0m-4-84" style="edgeStyle=orthogonalEdgeStyle;rounded=0;orthogonalLoop=1;jettySize=auto;html=1;exitX=0;exitY=0.75;exitDx=0;exitDy=0;entryX=1;entryY=0.5;entryDx=0;entryDy=0;endArrow=none;startFill=0;" edge="1" parent="1" source="4hJ10KiGVq28Ic1PhPiy-1" target="4hJ10KiGVq28Ic1PhPiy-33">
          <mxGeometry relative="1" as="geometry" />
        </mxCell>
        <mxCell id="4hJ10KiGVq28Ic1PhPiy-1" value="Empleado" style="rounded=0;whiteSpace=wrap;html=1;" parent="1" vertex="1">
          <mxGeometry x="-600" y="180" width="130" height="70" as="geometry" />
        </mxCell>
        <mxCell id="CCO-kKmTmHaHIhjf0m-4-98" style="edgeStyle=orthogonalEdgeStyle;rounded=0;orthogonalLoop=1;jettySize=auto;html=1;exitX=0;exitY=1;exitDx=0;exitDy=0;entryX=1;entryY=0.5;entryDx=0;entryDy=0;endArrow=none;startFill=0;" edge="1" parent="1" source="4hJ10KiGVq28Ic1PhPiy-6" target="4hJ10KiGVq28Ic1PhPiy-24">
          <mxGeometry relative="1" as="geometry" />
        </mxCell>
        <mxCell id="CCO-kKmTmHaHIhjf0m-4-99" style="edgeStyle=orthogonalEdgeStyle;rounded=0;orthogonalLoop=1;jettySize=auto;html=1;exitX=0.75;exitY=0;exitDx=0;exitDy=0;entryX=0;entryY=1;entryDx=0;entryDy=0;endArrow=none;startFill=0;" edge="1" parent="1" source="4hJ10KiGVq28Ic1PhPiy-6" target="4hJ10KiGVq28Ic1PhPiy-8">
          <mxGeometry relative="1" as="geometry" />
        </mxCell>
        <mxCell id="CCO-kKmTmHaHIhjf0m-4-101" style="edgeStyle=orthogonalEdgeStyle;rounded=0;orthogonalLoop=1;jettySize=auto;html=1;exitX=1;exitY=0.5;exitDx=0;exitDy=0;endArrow=none;startFill=0;" edge="1" parent="1" source="4hJ10KiGVq28Ic1PhPiy-6" target="4hJ10KiGVq28Ic1PhPiy-25">
          <mxGeometry relative="1" as="geometry" />
        </mxCell>
        <mxCell id="4hJ10KiGVq28Ic1PhPiy-6" value="Sucursal" style="rounded=0;whiteSpace=wrap;html=1;" parent="1" vertex="1">
          <mxGeometry x="20" y="190" width="120" height="60" as="geometry" />
        </mxCell>
        <mxCell id="4hJ10KiGVq28Ic1PhPiy-7" value="nombre" style="ellipse;whiteSpace=wrap;html=1;" parent="1" vertex="1">
          <mxGeometry x="-115" y="170" width="80" height="40" as="geometry" />
        </mxCell>
        <mxCell id="4hJ10KiGVq28Ic1PhPiy-8" value="&lt;u&gt;id_sucursal&lt;/u&gt;" style="ellipse;whiteSpace=wrap;html=1;" parent="1" vertex="1">
          <mxGeometry x="105" y="130" width="80" height="40" as="geometry" />
        </mxCell>
        <mxCell id="CCO-kKmTmHaHIhjf0m-4-63" style="edgeStyle=orthogonalEdgeStyle;rounded=0;orthogonalLoop=1;jettySize=auto;html=1;exitX=0.5;exitY=0;exitDx=0;exitDy=0;entryX=0.5;entryY=1;entryDx=0;entryDy=0;endArrow=none;startFill=0;" edge="1" parent="1" source="4hJ10KiGVq28Ic1PhPiy-10" target="4hJ10KiGVq28Ic1PhPiy-12">
          <mxGeometry relative="1" as="geometry" />
        </mxCell>
        <mxCell id="4hJ10KiGVq28Ic1PhPiy-10" value="Direccion" style="rounded=0;whiteSpace=wrap;html=1;" parent="1" vertex="1">
          <mxGeometry x="-235" y="-110" width="120" height="60" as="geometry" />
        </mxCell>
        <mxCell id="4hJ10KiGVq28Ic1PhPiy-11" value="calle" style="ellipse;whiteSpace=wrap;html=1;" parent="1" vertex="1">
          <mxGeometry x="-320" y="-190" width="80" height="40" as="geometry" />
        </mxCell>
        <mxCell id="4hJ10KiGVq28Ic1PhPiy-12" value="altura" style="ellipse;whiteSpace=wrap;html=1;" parent="1" vertex="1">
          <mxGeometry x="-220" y="-190" width="80" height="40" as="geometry" />
        </mxCell>
        <mxCell id="CCO-kKmTmHaHIhjf0m-4-71" style="edgeStyle=orthogonalEdgeStyle;rounded=0;orthogonalLoop=1;jettySize=auto;html=1;exitX=0.5;exitY=0;exitDx=0;exitDy=0;entryX=0.5;entryY=1;entryDx=0;entryDy=0;endArrow=none;startFill=0;" edge="1" parent="1" source="4hJ10KiGVq28Ic1PhPiy-16" target="4hJ10KiGVq28Ic1PhPiy-18">
          <mxGeometry relative="1" as="geometry" />
        </mxCell>
        <mxCell id="4hJ10KiGVq28Ic1PhPiy-16" value="&lt;span style=&quot;font-weight: normal;&quot;&gt;Provincia&lt;/span&gt;" style="rounded=0;whiteSpace=wrap;html=1;fontStyle=1" parent="1" vertex="1">
          <mxGeometry x="825" y="-110" width="120" height="60" as="geometry" />
        </mxCell>
        <mxCell id="4hJ10KiGVq28Ic1PhPiy-17" value="nombre" style="ellipse;whiteSpace=wrap;html=1;" parent="1" vertex="1">
          <mxGeometry x="920" y="-200" width="80" height="40" as="geometry" />
        </mxCell>
        <mxCell id="4hJ10KiGVq28Ic1PhPiy-18" value="&lt;u&gt;id_provincia&lt;/u&gt;" style="ellipse;whiteSpace=wrap;html=1;" parent="1" vertex="1">
          <mxGeometry x="820" y="-200" width="80" height="40" as="geometry" />
        </mxCell>
        <mxCell id="CCO-kKmTmHaHIhjf0m-4-67" style="edgeStyle=orthogonalEdgeStyle;rounded=0;orthogonalLoop=1;jettySize=auto;html=1;exitX=0.25;exitY=0;exitDx=0;exitDy=0;entryX=0.5;entryY=1;entryDx=0;entryDy=0;endArrow=none;startFill=0;" edge="1" parent="1" source="4hJ10KiGVq28Ic1PhPiy-19" target="4hJ10KiGVq28Ic1PhPiy-20">
          <mxGeometry relative="1" as="geometry" />
        </mxCell>
        <mxCell id="CCO-kKmTmHaHIhjf0m-4-68" style="edgeStyle=orthogonalEdgeStyle;rounded=0;orthogonalLoop=1;jettySize=auto;html=1;exitX=0.5;exitY=0;exitDx=0;exitDy=0;entryX=0;entryY=0.5;entryDx=0;entryDy=0;endArrow=none;startFill=0;" edge="1" parent="1" source="4hJ10KiGVq28Ic1PhPiy-19" target="4hJ10KiGVq28Ic1PhPiy-21">
          <mxGeometry relative="1" as="geometry" />
        </mxCell>
        <mxCell id="4hJ10KiGVq28Ic1PhPiy-19" value="Localidad" style="rounded=0;whiteSpace=wrap;html=1;" parent="1" vertex="1">
          <mxGeometry x="110" y="-110" width="120" height="60" as="geometry" />
        </mxCell>
        <mxCell id="4hJ10KiGVq28Ic1PhPiy-20" value="&lt;u&gt;id_localidad&lt;/u&gt;" style="ellipse;whiteSpace=wrap;html=1;" parent="1" vertex="1">
          <mxGeometry x="80" y="-170" width="80" height="40" as="geometry" />
        </mxCell>
        <mxCell id="4hJ10KiGVq28Ic1PhPiy-21" value="nombre" style="ellipse;whiteSpace=wrap;html=1;" parent="1" vertex="1">
          <mxGeometry x="190" y="-170" width="80" height="40" as="geometry" />
        </mxCell>
        <mxCell id="4hJ10KiGVq28Ic1PhPiy-22" value="Crear indice sobre localidad" style="text;html=1;align=center;verticalAlign=middle;whiteSpace=wrap;rounded=0;" parent="1" vertex="1">
          <mxGeometry x="-305" y="-400" width="150" height="30" as="geometry" />
        </mxCell>
        <mxCell id="4hJ10KiGVq28Ic1PhPiy-23" value="codigo_postal" style="ellipse;whiteSpace=wrap;html=1;" parent="1" vertex="1">
          <mxGeometry x="-115" y="-190" width="90" height="40" as="geometry" />
        </mxCell>
        <mxCell id="4hJ10KiGVq28Ic1PhPiy-24" value="telefono" style="ellipse;whiteSpace=wrap;html=1;" parent="1" vertex="1">
          <mxGeometry x="-105" y="240" width="80" height="40" as="geometry" />
        </mxCell>
        <mxCell id="4hJ10KiGVq28Ic1PhPiy-25" value="email" style="ellipse;whiteSpace=wrap;html=1;" parent="1" vertex="1">
          <mxGeometry x="195" y="170" width="85" height="40" as="geometry" />
        </mxCell>
        <mxCell id="4hJ10KiGVq28Ic1PhPiy-26" value="&lt;u&gt;id_empleado&lt;/u&gt;" style="ellipse;whiteSpace=wrap;html=1;" parent="1" vertex="1">
          <mxGeometry x="-560" y="80" width="100" height="50" as="geometry" />
        </mxCell>
        <mxCell id="4hJ10KiGVq28Ic1PhPiy-27" value="fecha_nacimiento" style="ellipse;whiteSpace=wrap;html=1;" parent="1" vertex="1">
          <mxGeometry x="-790" y="80" width="110" height="50" as="geometry" />
        </mxCell>
        <mxCell id="4hJ10KiGVq28Ic1PhPiy-28" value="dni" style="ellipse;whiteSpace=wrap;html=1;" parent="1" vertex="1">
          <mxGeometry x="-820" y="140" width="90" height="40" as="geometry" />
        </mxCell>
        <mxCell id="4hJ10KiGVq28Ic1PhPiy-29" value="cuil" style="ellipse;whiteSpace=wrap;html=1;" parent="1" vertex="1">
          <mxGeometry x="-820" y="200" width="90" height="40" as="geometry" />
        </mxCell>
        <mxCell id="4hJ10KiGVq28Ic1PhPiy-33" value="telefono" style="ellipse;whiteSpace=wrap;html=1;" parent="1" vertex="1">
          <mxGeometry x="-800" y="255" width="90" height="40" as="geometry" />
        </mxCell>
        <mxCell id="4hJ10KiGVq28Ic1PhPiy-34" value="fecha_alta&lt;span style=&quot;color: rgba(0, 0, 0, 0); font-family: monospace; font-size: 0px; text-align: start; text-wrap-mode: nowrap;&quot;&gt;%3CmxGraphModel%3E%3Croot%3E%3CmxCell%20id%3D%220%22%2F%3E%3CmxCell%20id%3D%221%22%20parent%3D%220%22%2F%3E%3CmxCell%20id%3D%222%22%20value%3D%22telefono%22%20style%3D%22ellipse%3BwhiteSpace%3Dwrap%3Bhtml%3D1%3B%22%20vertex%3D%221%22%20parent%3D%221%22%3E%3CmxGeometry%20x%3D%22420%22%20y%3D%22310%22%20width%3D%2290%22%20height%3D%2240%22%20as%3D%22geometry%22%2F%3E%3C%2FmxCell%3E%3C%2Froot%3E%3C%2FmxGraphModel%3E&lt;/span&gt;" style="ellipse;whiteSpace=wrap;html=1;" parent="1" vertex="1">
          <mxGeometry x="-750" y="295" width="90" height="40" as="geometry" />
        </mxCell>
        <mxCell id="4hJ10KiGVq28Ic1PhPiy-35" value="fecha_baja" style="ellipse;whiteSpace=wrap;html=1;" parent="1" vertex="1">
          <mxGeometry x="-646.25" y="320" width="90" height="40" as="geometry" />
        </mxCell>
        <mxCell id="4hJ10KiGVq28Ic1PhPiy-36" value="nombre" style="ellipse;whiteSpace=wrap;html=1;" parent="1" vertex="1">
          <mxGeometry x="-550" y="320" width="90" height="40" as="geometry" />
        </mxCell>
        <mxCell id="4hJ10KiGVq28Ic1PhPiy-37" value="apellido" style="ellipse;whiteSpace=wrap;html=1;" parent="1" vertex="1">
          <mxGeometry x="-450" y="320" width="90" height="40" as="geometry" />
        </mxCell>
        <mxCell id="4hJ10KiGVq28Ic1PhPiy-38" value="email" style="ellipse;whiteSpace=wrap;html=1;" parent="1" vertex="1">
          <mxGeometry x="-675" y="80" width="110" height="50" as="geometry" />
        </mxCell>
        <mxCell id="4hJ10KiGVq28Ic1PhPiy-39" value="&lt;u&gt;id_direccion&lt;/u&gt;" style="ellipse;whiteSpace=wrap;html=1;" parent="1" vertex="1">
          <mxGeometry x="-360" y="-130" width="80" height="40" as="geometry" />
        </mxCell>
        <mxCell id="CCO-kKmTmHaHIhjf0m-4-127" style="edgeStyle=orthogonalEdgeStyle;rounded=0;orthogonalLoop=1;jettySize=auto;html=1;exitX=1;exitY=0;exitDx=0;exitDy=0;entryX=0;entryY=1;entryDx=0;entryDy=0;endArrow=none;startFill=0;" edge="1" parent="1" source="4hJ10KiGVq28Ic1PhPiy-41" target="4hJ10KiGVq28Ic1PhPiy-96">
          <mxGeometry relative="1" as="geometry" />
        </mxCell>
        <mxCell id="CCO-kKmTmHaHIhjf0m-4-130" style="edgeStyle=orthogonalEdgeStyle;rounded=0;orthogonalLoop=1;jettySize=auto;html=1;exitX=0;exitY=0;exitDx=0;exitDy=0;endArrow=none;startFill=0;" edge="1" parent="1" source="4hJ10KiGVq28Ic1PhPiy-41" target="4hJ10KiGVq28Ic1PhPiy-42">
          <mxGeometry relative="1" as="geometry" />
        </mxCell>
        <mxCell id="CCO-kKmTmHaHIhjf0m-4-131" style="edgeStyle=orthogonalEdgeStyle;rounded=0;orthogonalLoop=1;jettySize=auto;html=1;exitX=0;exitY=0.25;exitDx=0;exitDy=0;entryX=1;entryY=1;entryDx=0;entryDy=0;endArrow=none;startFill=0;" edge="1" parent="1" source="4hJ10KiGVq28Ic1PhPiy-41" target="4hJ10KiGVq28Ic1PhPiy-94">
          <mxGeometry relative="1" as="geometry" />
        </mxCell>
        <mxCell id="CCO-kKmTmHaHIhjf0m-4-132" style="edgeStyle=orthogonalEdgeStyle;rounded=0;orthogonalLoop=1;jettySize=auto;html=1;exitX=0;exitY=0.5;exitDx=0;exitDy=0;entryX=1;entryY=0.5;entryDx=0;entryDy=0;endArrow=none;startFill=0;" edge="1" parent="1" source="4hJ10KiGVq28Ic1PhPiy-41" target="4hJ10KiGVq28Ic1PhPiy-95">
          <mxGeometry relative="1" as="geometry" />
        </mxCell>
        <mxCell id="CCO-kKmTmHaHIhjf0m-4-214" style="edgeStyle=orthogonalEdgeStyle;rounded=0;orthogonalLoop=1;jettySize=auto;html=1;exitX=0;exitY=0.75;exitDx=0;exitDy=0;entryX=1;entryY=0.5;entryDx=0;entryDy=0;endArrow=none;startFill=0;" edge="1" parent="1" source="4hJ10KiGVq28Ic1PhPiy-41" target="CCO-kKmTmHaHIhjf0m-4-209">
          <mxGeometry relative="1" as="geometry" />
        </mxCell>
        <mxCell id="4hJ10KiGVq28Ic1PhPiy-41" value="Cliente" style="rounded=0;whiteSpace=wrap;html=1;" parent="1" vertex="1">
          <mxGeometry x="-544.17" y="555" width="120" height="60" as="geometry" />
        </mxCell>
        <mxCell id="4hJ10KiGVq28Ic1PhPiy-42" value="&lt;u&gt;id_cliente&lt;/u&gt;" style="ellipse;whiteSpace=wrap;html=1;" parent="1" vertex="1">
          <mxGeometry x="-715" y="480" width="90" height="40" as="geometry" />
        </mxCell>
        <mxCell id="CCO-kKmTmHaHIhjf0m-4-275" style="edgeStyle=orthogonalEdgeStyle;rounded=0;orthogonalLoop=1;jettySize=auto;html=1;exitX=0.5;exitY=0;exitDx=0;exitDy=0;endArrow=none;startFill=0;" edge="1" parent="1" source="4hJ10KiGVq28Ic1PhPiy-43">
          <mxGeometry relative="1" as="geometry">
            <mxPoint x="1650" y="390" as="targetPoint" />
          </mxGeometry>
        </mxCell>
        <mxCell id="CCO-kKmTmHaHIhjf0m-4-278" style="edgeStyle=orthogonalEdgeStyle;rounded=0;orthogonalLoop=1;jettySize=auto;html=1;exitX=1;exitY=0.25;exitDx=0;exitDy=0;endArrow=none;startFill=0;" edge="1" parent="1" source="4hJ10KiGVq28Ic1PhPiy-43" target="4hJ10KiGVq28Ic1PhPiy-56">
          <mxGeometry relative="1" as="geometry" />
        </mxCell>
        <mxCell id="4hJ10KiGVq28Ic1PhPiy-43" value="Producto" style="rounded=0;whiteSpace=wrap;html=1;" parent="1" vertex="1">
          <mxGeometry x="1579.99" y="443.75" width="120" height="60" as="geometry" />
        </mxCell>
        <mxCell id="4hJ10KiGVq28Ic1PhPiy-44" value="&lt;u&gt;id_producto&lt;/u&gt;" style="ellipse;whiteSpace=wrap;html=1;" parent="1" vertex="1">
          <mxGeometry x="1615" y="348.75" width="90" height="40" as="geometry" />
        </mxCell>
        <mxCell id="CCO-kKmTmHaHIhjf0m-4-317" style="edgeStyle=orthogonalEdgeStyle;rounded=0;orthogonalLoop=1;jettySize=auto;html=1;exitX=0;exitY=0;exitDx=0;exitDy=0;entryX=1;entryY=0.5;entryDx=0;entryDy=0;endArrow=none;startFill=0;" edge="1" parent="1" source="4hJ10KiGVq28Ic1PhPiy-45" target="4hJ10KiGVq28Ic1PhPiy-48">
          <mxGeometry relative="1" as="geometry" />
        </mxCell>
        <mxCell id="CCO-kKmTmHaHIhjf0m-4-320" style="edgeStyle=orthogonalEdgeStyle;rounded=0;orthogonalLoop=1;jettySize=auto;html=1;exitX=0.75;exitY=1;exitDx=0;exitDy=0;entryX=0;entryY=0.5;entryDx=0;entryDy=0;endArrow=none;startFill=0;" edge="1" parent="1" source="4hJ10KiGVq28Ic1PhPiy-45" target="4hJ10KiGVq28Ic1PhPiy-46">
          <mxGeometry relative="1" as="geometry" />
        </mxCell>
        <mxCell id="CCO-kKmTmHaHIhjf0m-4-327" style="edgeStyle=orthogonalEdgeStyle;rounded=0;orthogonalLoop=1;jettySize=auto;html=1;exitX=1;exitY=1;exitDx=0;exitDy=0;entryX=0;entryY=0.5;entryDx=0;entryDy=0;endArrow=none;startFill=0;" edge="1" parent="1" source="4hJ10KiGVq28Ic1PhPiy-45" target="4hJ10KiGVq28Ic1PhPiy-49">
          <mxGeometry relative="1" as="geometry" />
        </mxCell>
        <mxCell id="4hJ10KiGVq28Ic1PhPiy-45" value="Venta" style="rounded=0;whiteSpace=wrap;html=1;" parent="1" vertex="1">
          <mxGeometry x="20" y="440" width="130" height="70" as="geometry" />
        </mxCell>
        <mxCell id="4hJ10KiGVq28Ic1PhPiy-46" value="&lt;u&gt;id_venta&lt;/u&gt;" style="ellipse;whiteSpace=wrap;html=1;" parent="1" vertex="1">
          <mxGeometry x="150" y="550" width="80" height="30" as="geometry" />
        </mxCell>
        <mxCell id="4hJ10KiGVq28Ic1PhPiy-48" value="fecha" style="ellipse;whiteSpace=wrap;html=1;" parent="1" vertex="1">
          <mxGeometry x="-95" y="400" width="75" height="30" as="geometry" />
        </mxCell>
        <mxCell id="4hJ10KiGVq28Ic1PhPiy-49" value="hora" style="ellipse;whiteSpace=wrap;html=1;" parent="1" vertex="1">
          <mxGeometry x="170" y="506.25" width="65" height="27.5" as="geometry" />
        </mxCell>
        <mxCell id="CCO-kKmTmHaHIhjf0m-4-289" style="edgeStyle=orthogonalEdgeStyle;rounded=0;orthogonalLoop=1;jettySize=auto;html=1;exitX=0.25;exitY=1;exitDx=0;exitDy=0;entryX=1;entryY=0;entryDx=0;entryDy=0;endArrow=none;startFill=0;" edge="1" parent="1" source="4hJ10KiGVq28Ic1PhPiy-50" target="4hJ10KiGVq28Ic1PhPiy-77">
          <mxGeometry relative="1" as="geometry" />
        </mxCell>
        <mxCell id="CCO-kKmTmHaHIhjf0m-4-294" style="edgeStyle=orthogonalEdgeStyle;rounded=0;orthogonalLoop=1;jettySize=auto;html=1;exitX=1;exitY=0;exitDx=0;exitDy=0;endArrow=none;startFill=0;" edge="1" parent="1" source="4hJ10KiGVq28Ic1PhPiy-50" target="4hJ10KiGVq28Ic1PhPiy-76">
          <mxGeometry relative="1" as="geometry" />
        </mxCell>
        <mxCell id="4hJ10KiGVq28Ic1PhPiy-50" value="Linea de Venta" style="rounded=0;whiteSpace=wrap;html=1;" parent="1" vertex="1">
          <mxGeometry x="920" y="440" width="120" height="60" as="geometry" />
        </mxCell>
        <mxCell id="CCO-kKmTmHaHIhjf0m-4-288" style="edgeStyle=orthogonalEdgeStyle;rounded=0;orthogonalLoop=1;jettySize=auto;html=1;exitX=0;exitY=0.5;exitDx=0;exitDy=0;entryX=1;entryY=0.5;entryDx=0;entryDy=0;endArrow=none;startFill=0;" edge="1" parent="1" source="4hJ10KiGVq28Ic1PhPiy-51" target="4hJ10KiGVq28Ic1PhPiy-52">
          <mxGeometry relative="1" as="geometry" />
        </mxCell>
        <mxCell id="4hJ10KiGVq28Ic1PhPiy-51" value="TipoDeProducto" style="rounded=0;whiteSpace=wrap;html=1;" parent="1" vertex="1">
          <mxGeometry x="1417.5" y="725" width="120" height="60" as="geometry" />
        </mxCell>
        <mxCell id="4hJ10KiGVq28Ic1PhPiy-52" value="&lt;u&gt;id_lineaProducto&lt;/u&gt;" style="ellipse;whiteSpace=wrap;html=1;" parent="1" vertex="1">
          <mxGeometry x="1255" y="740" width="120" height="40" as="geometry" />
        </mxCell>
        <mxCell id="4hJ10KiGVq28Ic1PhPiy-53" value="nombre" style="ellipse;whiteSpace=wrap;html=1;" parent="1" vertex="1">
          <mxGeometry x="1445" y="818.75" width="80" height="40" as="geometry" />
        </mxCell>
        <mxCell id="4hJ10KiGVq28Ic1PhPiy-54" value="nombre" style="ellipse;whiteSpace=wrap;html=1;" parent="1" vertex="1">
          <mxGeometry x="1515" y="363.75" width="100" height="40" as="geometry" />
        </mxCell>
        <mxCell id="4hJ10KiGVq28Ic1PhPiy-56" value="stock" style="ellipse;whiteSpace=wrap;html=1;" parent="1" vertex="1">
          <mxGeometry x="1752.5" y="403.75" width="100" height="40" as="geometry" />
        </mxCell>
        <mxCell id="CCO-kKmTmHaHIhjf0m-4-280" style="edgeStyle=orthogonalEdgeStyle;rounded=0;orthogonalLoop=1;jettySize=auto;html=1;exitX=0;exitY=0.5;exitDx=0;exitDy=0;entryX=0.5;entryY=0;entryDx=0;entryDy=0;endArrow=none;startFill=0;" edge="1" parent="1" source="4hJ10KiGVq28Ic1PhPiy-57" target="4hJ10KiGVq28Ic1PhPiy-63">
          <mxGeometry relative="1" as="geometry" />
        </mxCell>
        <mxCell id="CCO-kKmTmHaHIhjf0m-4-283" style="edgeStyle=orthogonalEdgeStyle;rounded=0;orthogonalLoop=1;jettySize=auto;html=1;exitX=0.75;exitY=1;exitDx=0;exitDy=0;entryX=0;entryY=0;entryDx=0;entryDy=0;endArrow=none;startFill=0;" edge="1" parent="1" source="4hJ10KiGVq28Ic1PhPiy-57" target="4hJ10KiGVq28Ic1PhPiy-58">
          <mxGeometry relative="1" as="geometry" />
        </mxCell>
        <mxCell id="CCO-kKmTmHaHIhjf0m-4-286" style="edgeStyle=orthogonalEdgeStyle;rounded=0;orthogonalLoop=1;jettySize=auto;html=1;exitX=1;exitY=0.5;exitDx=0;exitDy=0;endArrow=none;startFill=0;" edge="1" parent="1" source="4hJ10KiGVq28Ic1PhPiy-57">
          <mxGeometry relative="1" as="geometry">
            <mxPoint x="1910" y="730" as="targetPoint" />
          </mxGeometry>
        </mxCell>
        <mxCell id="4hJ10KiGVq28Ic1PhPiy-57" value="HistorialPrecios" style="rounded=0;whiteSpace=wrap;html=1;" parent="1" vertex="1">
          <mxGeometry x="1742.4999999999998" y="720" width="120" height="60" as="geometry" />
        </mxCell>
        <mxCell id="4hJ10KiGVq28Ic1PhPiy-58" value="&lt;u&gt;id_historial&lt;/u&gt;" style="ellipse;whiteSpace=wrap;html=1;" parent="1" vertex="1">
          <mxGeometry x="1842.5" y="828.75" width="90" height="30" as="geometry" />
        </mxCell>
        <mxCell id="4hJ10KiGVq28Ic1PhPiy-61" value="costo_unitario" style="ellipse;whiteSpace=wrap;html=1;" parent="1" vertex="1">
          <mxGeometry x="1875" y="698.75" width="110" height="30" as="geometry" />
        </mxCell>
        <mxCell id="4hJ10KiGVq28Ic1PhPiy-62" value="precio" style="ellipse;whiteSpace=wrap;html=1;" parent="1" vertex="1">
          <mxGeometry x="1752.5" y="828.75" width="85" height="30" as="geometry" />
        </mxCell>
        <mxCell id="4hJ10KiGVq28Ic1PhPiy-63" value="fecha_desde" style="ellipse;whiteSpace=wrap;html=1;" parent="1" vertex="1">
          <mxGeometry x="1660" y="818.75" width="92.5" height="30" as="geometry" />
        </mxCell>
        <mxCell id="4hJ10KiGVq28Ic1PhPiy-64" value="fecha_hasta" style="ellipse;whiteSpace=wrap;html=1;" parent="1" vertex="1">
          <mxGeometry x="1890" y="768.75" width="100" height="30" as="geometry" />
        </mxCell>
        <mxCell id="4hJ10KiGVq28Ic1PhPiy-67" value="se puede agregar el id de sucursal en el historia, si el precio varia entre sucursales" style="text;html=1;align=center;verticalAlign=middle;whiteSpace=wrap;rounded=0;" parent="1" vertex="1">
          <mxGeometry x="-305" y="-520" width="165" height="50" as="geometry" />
        </mxCell>
        <mxCell id="4hJ10KiGVq28Ic1PhPiy-68" value="descripcion" style="ellipse;whiteSpace=wrap;html=1;" parent="1" vertex="1">
          <mxGeometry x="1705" y="353.75" width="100" height="40" as="geometry" />
        </mxCell>
        <mxCell id="CCO-kKmTmHaHIhjf0m-4-306" style="edgeStyle=orthogonalEdgeStyle;rounded=0;orthogonalLoop=1;jettySize=auto;html=1;exitX=1;exitY=0;exitDx=0;exitDy=0;entryX=0;entryY=1;entryDx=0;entryDy=0;endArrow=none;startFill=0;" edge="1" parent="1" source="4hJ10KiGVq28Ic1PhPiy-69" target="4hJ10KiGVq28Ic1PhPiy-72">
          <mxGeometry relative="1" as="geometry" />
        </mxCell>
        <mxCell id="CCO-kKmTmHaHIhjf0m-4-310" style="edgeStyle=orthogonalEdgeStyle;rounded=0;orthogonalLoop=1;jettySize=auto;html=1;exitX=0;exitY=1;exitDx=0;exitDy=0;entryX=1;entryY=0.5;entryDx=0;entryDy=0;endArrow=none;startFill=0;" edge="1" parent="1" source="4hJ10KiGVq28Ic1PhPiy-69" target="4hJ10KiGVq28Ic1PhPiy-73">
          <mxGeometry relative="1" as="geometry" />
        </mxCell>
        <mxCell id="4hJ10KiGVq28Ic1PhPiy-69" value="Factura" style="rounded=0;whiteSpace=wrap;html=1;" parent="1" vertex="1">
          <mxGeometry x="20" y="760" width="130" height="65" as="geometry" />
        </mxCell>
        <mxCell id="4hJ10KiGVq28Ic1PhPiy-70" value="fecha" style="ellipse;whiteSpace=wrap;html=1;" parent="1" vertex="1">
          <mxGeometry x="130" y="850" width="90" height="40" as="geometry" />
        </mxCell>
        <mxCell id="4hJ10KiGVq28Ic1PhPiy-71" value="&lt;u&gt;id_factura&lt;/u&gt;" style="ellipse;whiteSpace=wrap;html=1;" parent="1" vertex="1">
          <mxGeometry x="-52.499999999999915" y="690" width="90" height="40" as="geometry" />
        </mxCell>
        <mxCell id="4hJ10KiGVq28Ic1PhPiy-72" value="hora" style="ellipse;whiteSpace=wrap;html=1;" parent="1" vertex="1">
          <mxGeometry x="145.00000000000014" y="710" width="90" height="40" as="geometry" />
        </mxCell>
        <mxCell id="4hJ10KiGVq28Ic1PhPiy-73" value="total_factura" style="ellipse;whiteSpace=wrap;html=1;" parent="1" vertex="1">
          <mxGeometry x="-89.99999999999989" y="825" width="90" height="40" as="geometry" />
        </mxCell>
        <mxCell id="4hJ10KiGVq28Ic1PhPiy-74" value="&lt;u&gt;id_lineaVenta&lt;/u&gt;" style="ellipse;whiteSpace=wrap;html=1;" parent="1" vertex="1">
          <mxGeometry x="910" y="360" width="90" height="40" as="geometry" />
        </mxCell>
        <mxCell id="4hJ10KiGVq28Ic1PhPiy-75" value="cantidad" style="ellipse;whiteSpace=wrap;html=1;" parent="1" vertex="1">
          <mxGeometry x="1010" y="370" width="80" height="30" as="geometry" />
        </mxCell>
        <mxCell id="4hJ10KiGVq28Ic1PhPiy-76" value="precio_unitario" style="ellipse;whiteSpace=wrap;html=1;" parent="1" vertex="1">
          <mxGeometry x="1090" y="380" width="90" height="40" as="geometry" />
        </mxCell>
        <mxCell id="4hJ10KiGVq28Ic1PhPiy-77" value="subtotal" style="ellipse;whiteSpace=wrap;html=1;dashed=1;" parent="1" vertex="1">
          <mxGeometry x="847.4999999999999" y="525" width="90" height="40" as="geometry" />
        </mxCell>
        <mxCell id="CCO-kKmTmHaHIhjf0m-4-311" style="edgeStyle=orthogonalEdgeStyle;rounded=0;orthogonalLoop=1;jettySize=auto;html=1;exitX=0;exitY=0.5;exitDx=0;exitDy=0;entryX=1;entryY=0.5;entryDx=0;entryDy=0;endArrow=none;startFill=0;" edge="1" parent="1" source="4hJ10KiGVq28Ic1PhPiy-83" target="4hJ10KiGVq28Ic1PhPiy-84">
          <mxGeometry relative="1" as="geometry" />
        </mxCell>
        <mxCell id="CCO-kKmTmHaHIhjf0m-4-312" style="edgeStyle=orthogonalEdgeStyle;rounded=0;orthogonalLoop=1;jettySize=auto;html=1;exitX=1;exitY=0.5;exitDx=0;exitDy=0;entryX=0;entryY=0.5;entryDx=0;entryDy=0;endArrow=none;startFill=0;" edge="1" parent="1" source="4hJ10KiGVq28Ic1PhPiy-83" target="4hJ10KiGVq28Ic1PhPiy-85">
          <mxGeometry relative="1" as="geometry" />
        </mxCell>
        <mxCell id="4hJ10KiGVq28Ic1PhPiy-83" value="TipoFactura" style="rounded=0;whiteSpace=wrap;html=1;" parent="1" vertex="1">
          <mxGeometry x="30" y="1040" width="120" height="60" as="geometry" />
        </mxCell>
        <mxCell id="4hJ10KiGVq28Ic1PhPiy-84" value="&lt;u&gt;id_tipoFactura&lt;/u&gt;" style="ellipse;whiteSpace=wrap;html=1;" parent="1" vertex="1">
          <mxGeometry x="-115" y="1050" width="90" height="40" as="geometry" />
        </mxCell>
        <mxCell id="4hJ10KiGVq28Ic1PhPiy-85" value="descripcion" style="ellipse;whiteSpace=wrap;html=1;" parent="1" vertex="1">
          <mxGeometry x="185.0000000000001" y="1050" width="90" height="40" as="geometry" />
        </mxCell>
        <mxCell id="CCO-kKmTmHaHIhjf0m-4-299" style="edgeStyle=orthogonalEdgeStyle;rounded=0;orthogonalLoop=1;jettySize=auto;html=1;exitX=0.5;exitY=0;exitDx=0;exitDy=0;entryX=0.5;entryY=1;entryDx=0;entryDy=0;endArrow=none;startFill=0;" edge="1" parent="1" source="4hJ10KiGVq28Ic1PhPiy-89" target="CCO-kKmTmHaHIhjf0m-4-205">
          <mxGeometry relative="1" as="geometry" />
        </mxCell>
        <mxCell id="CCO-kKmTmHaHIhjf0m-4-300" style="edgeStyle=orthogonalEdgeStyle;rounded=0;orthogonalLoop=1;jettySize=auto;html=1;exitX=0.5;exitY=1;exitDx=0;exitDy=0;entryX=0.5;entryY=0;entryDx=0;entryDy=0;endArrow=none;startFill=0;" edge="1" parent="1" source="4hJ10KiGVq28Ic1PhPiy-89" target="4hJ10KiGVq28Ic1PhPiy-92">
          <mxGeometry relative="1" as="geometry" />
        </mxCell>
        <mxCell id="4hJ10KiGVq28Ic1PhPiy-89" value="MedioPago" style="rounded=0;whiteSpace=wrap;html=1;" parent="1" vertex="1">
          <mxGeometry x="925" y="768.75" width="120" height="60" as="geometry" />
        </mxCell>
        <mxCell id="4hJ10KiGVq28Ic1PhPiy-92" value="&lt;u&gt;id_medioPago&lt;/u&gt;" style="ellipse;whiteSpace=wrap;html=1;" parent="1" vertex="1">
          <mxGeometry x="940" y="870" width="90" height="40" as="geometry" />
        </mxCell>
        <mxCell id="4hJ10KiGVq28Ic1PhPiy-94" value="nombre" style="ellipse;whiteSpace=wrap;html=1;" parent="1" vertex="1">
          <mxGeometry x="-780" y="520" width="90" height="40" as="geometry" />
        </mxCell>
        <mxCell id="4hJ10KiGVq28Ic1PhPiy-95" value="apellido" style="ellipse;whiteSpace=wrap;html=1;" parent="1" vertex="1">
          <mxGeometry x="-765" y="570" width="90" height="40" as="geometry" />
        </mxCell>
        <mxCell id="4hJ10KiGVq28Ic1PhPiy-96" value="email" style="ellipse;whiteSpace=wrap;html=1;" parent="1" vertex="1">
          <mxGeometry x="-424.17" y="495" width="76.67" height="35" as="geometry" />
        </mxCell>
        <mxCell id="4hJ10KiGVq28Ic1PhPiy-97" value="telefono" style="ellipse;whiteSpace=wrap;html=1;" parent="1" vertex="1">
          <mxGeometry x="-625" y="453.75" width="90" height="32.5" as="geometry" />
        </mxCell>
        <mxCell id="4hJ10KiGVq28Ic1PhPiy-103" value="Descuento" style="rounded=0;whiteSpace=wrap;html=1;" parent="1" vertex="1">
          <mxGeometry x="510" y="250" width="120" height="60" as="geometry" />
        </mxCell>
        <mxCell id="4hJ10KiGVq28Ic1PhPiy-104" value="&lt;u&gt;id_descuento&lt;/u&gt;" style="ellipse;whiteSpace=wrap;html=1;" parent="1" vertex="1">
          <mxGeometry x="680" y="170" width="90" height="40" as="geometry" />
        </mxCell>
        <mxCell id="4hJ10KiGVq28Ic1PhPiy-105" value="descripcion" style="ellipse;whiteSpace=wrap;html=1;" parent="1" vertex="1">
          <mxGeometry x="420" y="155" width="90" height="40" as="geometry" />
        </mxCell>
        <mxCell id="4hJ10KiGVq28Ic1PhPiy-106" value="monto_descuento" style="ellipse;whiteSpace=wrap;html=1;" parent="1" vertex="1">
          <mxGeometry x="605" y="130" width="100" height="40" as="geometry" />
        </mxCell>
        <mxCell id="4hJ10KiGVq28Ic1PhPiy-107" value="fecha_inicio" style="ellipse;whiteSpace=wrap;html=1;" parent="1" vertex="1">
          <mxGeometry x="400" y="200" width="90" height="40" as="geometry" />
        </mxCell>
        <mxCell id="4hJ10KiGVq28Ic1PhPiy-108" value="fecha_fin" style="ellipse;whiteSpace=wrap;html=1;" parent="1" vertex="1">
          <mxGeometry x="365" y="250" width="90" height="40" as="geometry" />
        </mxCell>
        <mxCell id="CCO-kKmTmHaHIhjf0m-4-215" style="edgeStyle=orthogonalEdgeStyle;rounded=0;orthogonalLoop=1;jettySize=auto;html=1;exitX=0;exitY=0;exitDx=0;exitDy=0;entryX=1;entryY=0.5;entryDx=0;entryDy=0;endArrow=none;startFill=0;" edge="1" parent="1" source="CCO-kKmTmHaHIhjf0m-4-1" target="CCO-kKmTmHaHIhjf0m-4-4">
          <mxGeometry relative="1" as="geometry" />
        </mxCell>
        <mxCell id="CCO-kKmTmHaHIhjf0m-4-216" style="edgeStyle=orthogonalEdgeStyle;rounded=0;orthogonalLoop=1;jettySize=auto;html=1;exitX=0;exitY=0.5;exitDx=0;exitDy=0;endArrow=none;startFill=0;" edge="1" parent="1" source="CCO-kKmTmHaHIhjf0m-4-1">
          <mxGeometry relative="1" as="geometry">
            <mxPoint x="-890" y="829.5" as="targetPoint" />
          </mxGeometry>
        </mxCell>
        <mxCell id="CCO-kKmTmHaHIhjf0m-4-217" style="edgeStyle=orthogonalEdgeStyle;rounded=0;orthogonalLoop=1;jettySize=auto;html=1;exitX=0;exitY=1;exitDx=0;exitDy=0;entryX=1;entryY=0.5;entryDx=0;entryDy=0;endArrow=none;startFill=0;" edge="1" parent="1" source="CCO-kKmTmHaHIhjf0m-4-1" target="CCO-kKmTmHaHIhjf0m-4-3">
          <mxGeometry relative="1" as="geometry" />
        </mxCell>
        <mxCell id="CCO-kKmTmHaHIhjf0m-4-1" value="Nivel" style="rounded=0;whiteSpace=wrap;html=1;" vertex="1" parent="1">
          <mxGeometry x="-835" y="800" width="120" height="60" as="geometry" />
        </mxCell>
        <mxCell id="CCO-kKmTmHaHIhjf0m-4-2" value="&lt;u&gt;id_nivel&lt;/u&gt;" style="ellipse;whiteSpace=wrap;html=1;" vertex="1" parent="1">
          <mxGeometry x="-986.25" y="810" width="90" height="40" as="geometry" />
        </mxCell>
        <mxCell id="CCO-kKmTmHaHIhjf0m-4-3" value="nombre" style="ellipse;whiteSpace=wrap;html=1;" vertex="1" parent="1">
          <mxGeometry x="-960" y="870" width="90" height="40" as="geometry" />
        </mxCell>
        <mxCell id="CCO-kKmTmHaHIhjf0m-4-4" value="puntos_requeridos" style="ellipse;whiteSpace=wrap;html=1;" vertex="1" parent="1">
          <mxGeometry x="-986.25" y="750" width="122.5" height="40" as="geometry" />
        </mxCell>
        <mxCell id="CCO-kKmTmHaHIhjf0m-4-5" value="el monto total, va en la Venta en la Factura o en ambas?" style="text;html=1;align=center;verticalAlign=middle;whiteSpace=wrap;rounded=0;" vertex="1" parent="1">
          <mxGeometry x="-305" y="-620" width="165" height="50" as="geometry" />
        </mxCell>
        <mxCell id="CCO-kKmTmHaHIhjf0m-4-6" value="puntos_generados" style="ellipse;whiteSpace=wrap;html=1;dashed=1;" vertex="1" parent="1">
          <mxGeometry x="945" y="535" width="100" height="35" as="geometry" />
        </mxCell>
        <mxCell id="CCO-kKmTmHaHIhjf0m-4-7" value="fecha_registro" style="ellipse;whiteSpace=wrap;html=1;" vertex="1" parent="1">
          <mxGeometry x="-535" y="470" width="105" height="40" as="geometry" />
        </mxCell>
        <mxCell id="CCO-kKmTmHaHIhjf0m-4-222" style="edgeStyle=orthogonalEdgeStyle;rounded=0;orthogonalLoop=1;jettySize=auto;html=1;exitX=0.25;exitY=1;exitDx=0;exitDy=0;entryX=0.5;entryY=0;entryDx=0;entryDy=0;endArrow=none;startFill=0;" edge="1" parent="1" source="CCO-kKmTmHaHIhjf0m-4-8" target="CCO-kKmTmHaHIhjf0m-4-10">
          <mxGeometry relative="1" as="geometry" />
        </mxCell>
        <mxCell id="CCO-kKmTmHaHIhjf0m-4-226" style="edgeStyle=orthogonalEdgeStyle;rounded=0;orthogonalLoop=1;jettySize=auto;html=1;exitX=1;exitY=0.75;exitDx=0;exitDy=0;entryX=0.5;entryY=0;entryDx=0;entryDy=0;endArrow=none;startFill=0;" edge="1" parent="1" source="CCO-kKmTmHaHIhjf0m-4-8" target="CCO-kKmTmHaHIhjf0m-4-12">
          <mxGeometry relative="1" as="geometry" />
        </mxCell>
        <mxCell id="CCO-kKmTmHaHIhjf0m-4-8" value="Puntos" style="rounded=0;whiteSpace=wrap;html=1;" vertex="1" parent="1">
          <mxGeometry x="-542.5" y="820" width="120" height="60" as="geometry" />
        </mxCell>
        <mxCell id="CCO-kKmTmHaHIhjf0m-4-9" value="&lt;u&gt;id_puntos&lt;/u&gt;" style="ellipse;whiteSpace=wrap;html=1;" vertex="1" parent="1">
          <mxGeometry x="-470.00000000000006" y="930" width="90" height="40" as="geometry" />
        </mxCell>
        <mxCell id="CCO-kKmTmHaHIhjf0m-4-10" value="cantidad" style="ellipse;whiteSpace=wrap;html=1;" vertex="1" parent="1">
          <mxGeometry x="-565" y="930" width="90" height="40" as="geometry" />
        </mxCell>
        <mxCell id="CCO-kKmTmHaHIhjf0m-4-11" value="fecha_asignacion" style="ellipse;whiteSpace=wrap;html=1;" vertex="1" parent="1">
          <mxGeometry x="-650" y="900" width="100" height="40" as="geometry" />
        </mxCell>
        <mxCell id="CCO-kKmTmHaHIhjf0m-4-12" value="fecha_expiracion" style="ellipse;whiteSpace=wrap;html=1;" vertex="1" parent="1">
          <mxGeometry x="-385.00000000000006" y="910" width="100" height="40" as="geometry" />
        </mxCell>
        <mxCell id="CCO-kKmTmHaHIhjf0m-4-218" style="edgeStyle=orthogonalEdgeStyle;rounded=0;orthogonalLoop=1;jettySize=auto;html=1;exitX=0.25;exitY=1;exitDx=0;exitDy=0;entryX=0.5;entryY=0;entryDx=0;entryDy=0;endArrow=none;startFill=0;" edge="1" parent="1" source="CCO-kKmTmHaHIhjf0m-4-13" target="CCO-kKmTmHaHIhjf0m-4-14">
          <mxGeometry relative="1" as="geometry" />
        </mxCell>
        <mxCell id="CCO-kKmTmHaHIhjf0m-4-13" value="Beneficio" style="rounded=0;whiteSpace=wrap;html=1;" vertex="1" parent="1">
          <mxGeometry x="-836.25" y="1070" width="120" height="60" as="geometry" />
        </mxCell>
        <mxCell id="CCO-kKmTmHaHIhjf0m-4-14" value="&lt;u&gt;id_beneficio&lt;/u&gt;" style="ellipse;whiteSpace=wrap;html=1;" vertex="1" parent="1">
          <mxGeometry x="-856.25" y="1160" width="90" height="40" as="geometry" />
        </mxCell>
        <mxCell id="CCO-kKmTmHaHIhjf0m-4-15" value="descripcion" style="ellipse;whiteSpace=wrap;html=1;" vertex="1" parent="1">
          <mxGeometry x="-746.25" y="1160" width="100" height="40" as="geometry" />
        </mxCell>
        <mxCell id="CCO-kKmTmHaHIhjf0m-4-296" style="edgeStyle=orthogonalEdgeStyle;rounded=0;orthogonalLoop=1;jettySize=auto;html=1;exitX=0.75;exitY=1;exitDx=0;exitDy=0;entryX=0.5;entryY=0;entryDx=0;entryDy=0;endArrow=none;startFill=0;" edge="1" parent="1" source="CCO-kKmTmHaHIhjf0m-4-16" target="CCO-kKmTmHaHIhjf0m-4-20">
          <mxGeometry relative="1" as="geometry" />
        </mxCell>
        <mxCell id="CCO-kKmTmHaHIhjf0m-4-16" value="TipoDescuento" style="rounded=0;whiteSpace=wrap;html=1;" vertex="1" parent="1">
          <mxGeometry x="1080" y="150" width="120" height="60" as="geometry" />
        </mxCell>
        <mxCell id="CCO-kKmTmHaHIhjf0m-4-17" value="nombre" style="ellipse;whiteSpace=wrap;html=1;" vertex="1" parent="1">
          <mxGeometry x="1225" y="210" width="90" height="40" as="geometry" />
        </mxCell>
        <mxCell id="CCO-kKmTmHaHIhjf0m-4-18" value="id_tipoDescuento" style="ellipse;whiteSpace=wrap;html=1;" vertex="1" parent="1">
          <mxGeometry x="1225" y="130" width="100" height="40" as="geometry" />
        </mxCell>
        <mxCell id="CCO-kKmTmHaHIhjf0m-4-19" value="puntos_por_unidad" style="ellipse;whiteSpace=wrap;html=1;" vertex="1" parent="1">
          <mxGeometry x="1765" y="456.25" width="110" height="45" as="geometry" />
        </mxCell>
        <mxCell id="CCO-kKmTmHaHIhjf0m-4-20" value="descripcion" style="ellipse;whiteSpace=wrap;html=1;" vertex="1" parent="1">
          <mxGeometry x="1125" y="240" width="90" height="40" as="geometry" />
        </mxCell>
        <mxCell id="CCO-kKmTmHaHIhjf0m-4-21" value="Descuentos por volumen&lt;div&gt;Descuentos por temporada&lt;/div&gt;&lt;div&gt;Descuentos promocionales&lt;/div&gt;&lt;div&gt;descuentos exclusivos (programa fidelizacion)&lt;/div&gt;" style="text;html=1;align=center;verticalAlign=middle;whiteSpace=wrap;rounded=0;" vertex="1" parent="1">
          <mxGeometry x="1340" y="165" width="210" height="30" as="geometry" />
        </mxCell>
        <mxCell id="CCO-kKmTmHaHIhjf0m-4-22" value="porcentaje&lt;div&gt;valor fijo ?&amp;nbsp;&lt;/div&gt;" style="text;html=1;align=center;verticalAlign=middle;whiteSpace=wrap;rounded=0;" vertex="1" parent="1">
          <mxGeometry x="670.83" y="90" width="90" height="30" as="geometry" />
        </mxCell>
        <mxCell id="CCO-kKmTmHaHIhjf0m-4-23" value="condicion" style="ellipse;whiteSpace=wrap;html=1;" vertex="1" parent="1">
          <mxGeometry x="510" y="130" width="90" height="40" as="geometry" />
        </mxCell>
        <mxCell id="CCO-kKmTmHaHIhjf0m-4-322" style="edgeStyle=orthogonalEdgeStyle;rounded=0;orthogonalLoop=1;jettySize=auto;html=1;exitX=1;exitY=0.5;exitDx=0;exitDy=0;entryX=0;entryY=0.5;entryDx=0;entryDy=0;endArrow=none;startFill=0;" edge="1" parent="1" source="CCO-kKmTmHaHIhjf0m-4-26" target="4hJ10KiGVq28Ic1PhPiy-69">
          <mxGeometry relative="1" as="geometry" />
        </mxCell>
        <mxCell id="CCO-kKmTmHaHIhjf0m-4-26" value="total_descuento" style="ellipse;whiteSpace=wrap;html=1;" vertex="1" parent="1">
          <mxGeometry x="-100" y="775" width="90" height="40" as="geometry" />
        </mxCell>
        <mxCell id="CCO-kKmTmHaHIhjf0m-4-27" value="estado?" style="ellipse;whiteSpace=wrap;html=1;" vertex="1" parent="1">
          <mxGeometry x="-90" y="730" width="70" height="35" as="geometry" />
        </mxCell>
        <mxCell id="CCO-kKmTmHaHIhjf0m-4-28" value="ej: llevando 5 producto de igual tipo" style="text;html=1;align=center;verticalAlign=middle;whiteSpace=wrap;rounded=0;" vertex="1" parent="1">
          <mxGeometry x="510" y="80" width="125" height="30" as="geometry" />
        </mxCell>
        <mxCell id="CCO-kKmTmHaHIhjf0m-4-30" value="descuento_aplicado" style="ellipse;whiteSpace=wrap;html=1;" vertex="1" parent="1">
          <mxGeometry x="1045" y="510" width="115" height="50" as="geometry" />
        </mxCell>
        <mxCell id="CCO-kKmTmHaHIhjf0m-4-34" value="" style="endArrow=none;html=1;rounded=0;exitX=1;exitY=0.5;exitDx=0;exitDy=0;" edge="1" parent="1" source="CCO-kKmTmHaHIhjf0m-4-35">
          <mxGeometry width="50" height="50" relative="1" as="geometry">
            <mxPoint x="-115" y="-80" as="sourcePoint" />
            <mxPoint x="-20" y="-80" as="targetPoint" />
          </mxGeometry>
        </mxCell>
        <mxCell id="CCO-kKmTmHaHIhjf0m-4-36" value="" style="endArrow=none;html=1;rounded=0;exitX=1;exitY=0.5;exitDx=0;exitDy=0;dashed=1;" edge="1" parent="1" source="4hJ10KiGVq28Ic1PhPiy-10" target="CCO-kKmTmHaHIhjf0m-4-35">
          <mxGeometry width="50" height="50" relative="1" as="geometry">
            <mxPoint x="-115" y="-80" as="sourcePoint" />
            <mxPoint x="-20" y="-80" as="targetPoint" />
          </mxGeometry>
        </mxCell>
        <mxCell id="CCO-kKmTmHaHIhjf0m-4-35" value="" style="html=1;whiteSpace=wrap;aspect=fixed;shape=isoRectangle;" vertex="1" parent="1">
          <mxGeometry x="-40.84" y="-100" width="66.67" height="40" as="geometry" />
        </mxCell>
        <mxCell id="CCO-kKmTmHaHIhjf0m-4-37" value="" style="endArrow=none;html=1;rounded=0;exitX=0.913;exitY=0.5;exitDx=0;exitDy=0;exitPerimeter=0;entryX=0;entryY=0.5;entryDx=0;entryDy=0;" edge="1" parent="1" source="CCO-kKmTmHaHIhjf0m-4-35" target="4hJ10KiGVq28Ic1PhPiy-19">
          <mxGeometry width="50" height="50" relative="1" as="geometry">
            <mxPoint x="190" y="-100" as="sourcePoint" />
            <mxPoint x="240" y="-150" as="targetPoint" />
          </mxGeometry>
        </mxCell>
        <mxCell id="CCO-kKmTmHaHIhjf0m-4-39" value="se podria agregar una entidad Pais en caso de expansion internacional, pero creo que no viene al caso" style="text;html=1;align=center;verticalAlign=middle;whiteSpace=wrap;rounded=0;" vertex="1" parent="1">
          <mxGeometry x="1125" y="-130" width="150" height="75" as="geometry" />
        </mxCell>
        <mxCell id="CCO-kKmTmHaHIhjf0m-4-69" style="edgeStyle=orthogonalEdgeStyle;rounded=0;orthogonalLoop=1;jettySize=auto;html=1;exitX=0.25;exitY=1;exitDx=0;exitDy=0;entryX=1;entryY=0;entryDx=0;entryDy=0;endArrow=none;startFill=0;" edge="1" parent="1" source="CCO-kKmTmHaHIhjf0m-4-47" target="CCO-kKmTmHaHIhjf0m-4-48">
          <mxGeometry relative="1" as="geometry" />
        </mxCell>
        <mxCell id="CCO-kKmTmHaHIhjf0m-4-70" style="edgeStyle=orthogonalEdgeStyle;rounded=0;orthogonalLoop=1;jettySize=auto;html=1;exitX=0.75;exitY=1;exitDx=0;exitDy=0;entryX=0.5;entryY=0;entryDx=0;entryDy=0;endArrow=none;startFill=0;" edge="1" parent="1" source="CCO-kKmTmHaHIhjf0m-4-47" target="CCO-kKmTmHaHIhjf0m-4-49">
          <mxGeometry relative="1" as="geometry" />
        </mxCell>
        <mxCell id="CCO-kKmTmHaHIhjf0m-4-47" value="Ciudad" style="rounded=0;whiteSpace=wrap;html=1;" vertex="1" parent="1">
          <mxGeometry x="470" y="-110" width="120" height="60" as="geometry" />
        </mxCell>
        <mxCell id="CCO-kKmTmHaHIhjf0m-4-48" value="&lt;u&gt;id_ciudad&lt;/u&gt;" style="ellipse;whiteSpace=wrap;html=1;" vertex="1" parent="1">
          <mxGeometry x="410" y="-30" width="80" height="40" as="geometry" />
        </mxCell>
        <mxCell id="CCO-kKmTmHaHIhjf0m-4-49" value="nombre" style="ellipse;whiteSpace=wrap;html=1;" vertex="1" parent="1">
          <mxGeometry x="510" y="-20" width="80" height="40" as="geometry" />
        </mxCell>
        <mxCell id="CCO-kKmTmHaHIhjf0m-4-52" value="" style="endArrow=none;html=1;rounded=0;exitX=1;exitY=0.5;exitDx=0;exitDy=0;dashed=1;" edge="1" parent="1" target="CCO-kKmTmHaHIhjf0m-4-53">
          <mxGeometry width="50" height="50" relative="1" as="geometry">
            <mxPoint x="232.5" y="-80" as="sourcePoint" />
            <mxPoint x="327.5" y="-80" as="targetPoint" />
          </mxGeometry>
        </mxCell>
        <mxCell id="CCO-kKmTmHaHIhjf0m-4-53" value="" style="html=1;whiteSpace=wrap;aspect=fixed;shape=isoRectangle;" vertex="1" parent="1">
          <mxGeometry x="306.65999999999997" y="-100" width="66.67" height="40" as="geometry" />
        </mxCell>
        <mxCell id="CCO-kKmTmHaHIhjf0m-4-54" value="" style="endArrow=none;html=1;rounded=0;exitX=0.913;exitY=0.5;exitDx=0;exitDy=0;exitPerimeter=0;entryX=0;entryY=0.5;entryDx=0;entryDy=0;" edge="1" parent="1" source="CCO-kKmTmHaHIhjf0m-4-53" target="CCO-kKmTmHaHIhjf0m-4-47">
          <mxGeometry width="50" height="50" relative="1" as="geometry">
            <mxPoint x="537.5" y="-100" as="sourcePoint" />
            <mxPoint x="457.5" y="-80" as="targetPoint" />
          </mxGeometry>
        </mxCell>
        <mxCell id="CCO-kKmTmHaHIhjf0m-4-58" value="" style="endArrow=none;html=1;rounded=0;exitX=1;exitY=0.5;exitDx=0;exitDy=0;dashed=1;" edge="1" parent="1" target="CCO-kKmTmHaHIhjf0m-4-59">
          <mxGeometry width="50" height="50" relative="1" as="geometry">
            <mxPoint x="590" y="-80" as="sourcePoint" />
            <mxPoint x="685" y="-80" as="targetPoint" />
          </mxGeometry>
        </mxCell>
        <mxCell id="CCO-kKmTmHaHIhjf0m-4-59" value="" style="html=1;whiteSpace=wrap;aspect=fixed;shape=isoRectangle;" vertex="1" parent="1">
          <mxGeometry x="664.16" y="-100" width="66.67" height="40" as="geometry" />
        </mxCell>
        <mxCell id="CCO-kKmTmHaHIhjf0m-4-60" value="" style="endArrow=none;html=1;rounded=0;exitX=0.913;exitY=0.5;exitDx=0;exitDy=0;exitPerimeter=0;entryX=0;entryY=0.5;entryDx=0;entryDy=0;" edge="1" parent="1" source="CCO-kKmTmHaHIhjf0m-4-59">
          <mxGeometry width="50" height="50" relative="1" as="geometry">
            <mxPoint x="895" y="-100" as="sourcePoint" />
            <mxPoint x="827.5" y="-80" as="targetPoint" />
          </mxGeometry>
        </mxCell>
        <mxCell id="CCO-kKmTmHaHIhjf0m-4-64" style="edgeStyle=orthogonalEdgeStyle;rounded=0;orthogonalLoop=1;jettySize=auto;html=1;exitX=0.25;exitY=0;exitDx=0;exitDy=0;entryX=0.663;entryY=1.064;entryDx=0;entryDy=0;entryPerimeter=0;endArrow=none;startFill=0;" edge="1" parent="1" source="4hJ10KiGVq28Ic1PhPiy-10" target="4hJ10KiGVq28Ic1PhPiy-11">
          <mxGeometry relative="1" as="geometry" />
        </mxCell>
        <mxCell id="CCO-kKmTmHaHIhjf0m-4-65" style="edgeStyle=orthogonalEdgeStyle;rounded=0;orthogonalLoop=1;jettySize=auto;html=1;exitX=0;exitY=0.5;exitDx=0;exitDy=0;entryX=0.954;entryY=0.786;entryDx=0;entryDy=0;entryPerimeter=0;endArrow=none;startFill=0;" edge="1" parent="1" source="4hJ10KiGVq28Ic1PhPiy-10" target="4hJ10KiGVq28Ic1PhPiy-39">
          <mxGeometry relative="1" as="geometry" />
        </mxCell>
        <mxCell id="CCO-kKmTmHaHIhjf0m-4-66" style="edgeStyle=orthogonalEdgeStyle;rounded=0;orthogonalLoop=1;jettySize=auto;html=1;exitX=0.75;exitY=0;exitDx=0;exitDy=0;entryX=0.299;entryY=0.953;entryDx=0;entryDy=0;entryPerimeter=0;endArrow=none;startFill=0;" edge="1" parent="1" source="4hJ10KiGVq28Ic1PhPiy-10" target="4hJ10KiGVq28Ic1PhPiy-23">
          <mxGeometry relative="1" as="geometry" />
        </mxCell>
        <mxCell id="CCO-kKmTmHaHIhjf0m-4-72" style="edgeStyle=orthogonalEdgeStyle;rounded=0;orthogonalLoop=1;jettySize=auto;html=1;exitX=0.75;exitY=0;exitDx=0;exitDy=0;entryX=0.343;entryY=1.092;entryDx=0;entryDy=0;entryPerimeter=0;endArrow=none;startFill=0;" edge="1" parent="1" source="4hJ10KiGVq28Ic1PhPiy-16" target="4hJ10KiGVq28Ic1PhPiy-17">
          <mxGeometry relative="1" as="geometry" />
        </mxCell>
        <mxCell id="CCO-kKmTmHaHIhjf0m-4-73" value="" style="endArrow=none;html=1;rounded=0;entryX=0.75;entryY=1;entryDx=0;entryDy=0;exitX=0.417;exitY=0;exitDx=0;exitDy=0;exitPerimeter=0;" edge="1" parent="1" source="CCO-kKmTmHaHIhjf0m-4-74" target="4hJ10KiGVq28Ic1PhPiy-10">
          <mxGeometry width="50" height="50" relative="1" as="geometry">
            <mxPoint x="-140" y="160" as="sourcePoint" />
            <mxPoint x="-90" y="110" as="targetPoint" />
          </mxGeometry>
        </mxCell>
        <mxCell id="CCO-kKmTmHaHIhjf0m-4-75" value="" style="endArrow=none;html=1;rounded=0;entryX=0.75;entryY=1;entryDx=0;entryDy=0;exitX=0.417;exitY=0;exitDx=0;exitDy=0;exitPerimeter=0;" edge="1" parent="1" source="4hJ10KiGVq28Ic1PhPiy-6" target="CCO-kKmTmHaHIhjf0m-4-74">
          <mxGeometry width="50" height="50" relative="1" as="geometry">
            <mxPoint x="70" y="190" as="sourcePoint" />
            <mxPoint x="-145" y="-50" as="targetPoint" />
          </mxGeometry>
        </mxCell>
        <mxCell id="CCO-kKmTmHaHIhjf0m-4-74" value="" style="html=1;whiteSpace=wrap;aspect=fixed;shape=isoRectangle;" vertex="1" parent="1">
          <mxGeometry x="-75" y="50" width="66.67" height="40" as="geometry" />
        </mxCell>
        <mxCell id="CCO-kKmTmHaHIhjf0m-4-76" value="" style="endArrow=none;html=1;rounded=0;entryX=0.25;entryY=1;entryDx=0;entryDy=0;exitX=1;exitY=0;exitDx=0;exitDy=0;" edge="1" parent="1" source="CCO-kKmTmHaHIhjf0m-4-77" target="4hJ10KiGVq28Ic1PhPiy-10">
          <mxGeometry width="50" height="50" relative="1" as="geometry">
            <mxPoint x="-520" y="200" as="sourcePoint" />
            <mxPoint x="-470" y="150" as="targetPoint" />
          </mxGeometry>
        </mxCell>
        <mxCell id="CCO-kKmTmHaHIhjf0m-4-78" value="" style="endArrow=none;html=1;rounded=0;entryX=0.25;entryY=1;entryDx=0;entryDy=0;exitX=1;exitY=0;exitDx=0;exitDy=0;" edge="1" parent="1" source="4hJ10KiGVq28Ic1PhPiy-1" target="CCO-kKmTmHaHIhjf0m-4-77">
          <mxGeometry width="50" height="50" relative="1" as="geometry">
            <mxPoint x="-470" y="180" as="sourcePoint" />
            <mxPoint x="-205" y="-50" as="targetPoint" />
          </mxGeometry>
        </mxCell>
        <mxCell id="CCO-kKmTmHaHIhjf0m-4-77" value="" style="html=1;whiteSpace=wrap;aspect=fixed;shape=isoRectangle;" vertex="1" parent="1">
          <mxGeometry x="-368.33000000000004" y="40" width="66.67" height="40" as="geometry" />
        </mxCell>
        <mxCell id="CCO-kKmTmHaHIhjf0m-4-79" style="edgeStyle=orthogonalEdgeStyle;rounded=0;orthogonalLoop=1;jettySize=auto;html=1;exitX=0.75;exitY=0;exitDx=0;exitDy=0;entryX=0.574;entryY=1.073;entryDx=0;entryDy=0;entryPerimeter=0;endArrow=none;startFill=0;" edge="1" parent="1" source="4hJ10KiGVq28Ic1PhPiy-1" target="4hJ10KiGVq28Ic1PhPiy-26">
          <mxGeometry relative="1" as="geometry" />
        </mxCell>
        <mxCell id="CCO-kKmTmHaHIhjf0m-4-80" style="edgeStyle=orthogonalEdgeStyle;rounded=0;orthogonalLoop=1;jettySize=auto;html=1;exitX=0.25;exitY=0;exitDx=0;exitDy=0;entryX=0.638;entryY=1.073;entryDx=0;entryDy=0;entryPerimeter=0;endArrow=none;startFill=0;" edge="1" parent="1" source="4hJ10KiGVq28Ic1PhPiy-1" target="4hJ10KiGVq28Ic1PhPiy-38">
          <mxGeometry relative="1" as="geometry" />
        </mxCell>
        <mxCell id="CCO-kKmTmHaHIhjf0m-4-81" style="edgeStyle=orthogonalEdgeStyle;rounded=0;orthogonalLoop=1;jettySize=auto;html=1;exitX=0;exitY=0;exitDx=0;exitDy=0;entryX=0.727;entryY=1;entryDx=0;entryDy=0;entryPerimeter=0;endArrow=none;startFill=0;" edge="1" parent="1" source="4hJ10KiGVq28Ic1PhPiy-1" target="4hJ10KiGVq28Ic1PhPiy-27">
          <mxGeometry relative="1" as="geometry" />
        </mxCell>
        <mxCell id="CCO-kKmTmHaHIhjf0m-4-85" style="edgeStyle=orthogonalEdgeStyle;rounded=0;orthogonalLoop=1;jettySize=auto;html=1;exitX=0;exitY=1;exitDx=0;exitDy=0;entryX=0.996;entryY=0.328;entryDx=0;entryDy=0;entryPerimeter=0;endArrow=none;startFill=0;" edge="1" parent="1" source="4hJ10KiGVq28Ic1PhPiy-1" target="4hJ10KiGVq28Ic1PhPiy-34">
          <mxGeometry relative="1" as="geometry" />
        </mxCell>
        <mxCell id="CCO-kKmTmHaHIhjf0m-4-86" style="edgeStyle=orthogonalEdgeStyle;rounded=0;orthogonalLoop=1;jettySize=auto;html=1;exitX=0.25;exitY=1;exitDx=0;exitDy=0;entryX=0.782;entryY=0.008;entryDx=0;entryDy=0;entryPerimeter=0;endArrow=none;startFill=0;" edge="1" parent="1" source="4hJ10KiGVq28Ic1PhPiy-1" target="4hJ10KiGVq28Ic1PhPiy-35">
          <mxGeometry relative="1" as="geometry" />
        </mxCell>
        <mxCell id="CCO-kKmTmHaHIhjf0m-4-87" style="edgeStyle=orthogonalEdgeStyle;rounded=0;orthogonalLoop=1;jettySize=auto;html=1;exitX=0.75;exitY=1;exitDx=0;exitDy=0;entryX=0.379;entryY=-0.047;entryDx=0;entryDy=0;entryPerimeter=0;endArrow=none;startFill=0;" edge="1" parent="1" source="4hJ10KiGVq28Ic1PhPiy-1" target="4hJ10KiGVq28Ic1PhPiy-36">
          <mxGeometry relative="1" as="geometry" />
        </mxCell>
        <mxCell id="CCO-kKmTmHaHIhjf0m-4-88" style="edgeStyle=orthogonalEdgeStyle;rounded=0;orthogonalLoop=1;jettySize=auto;html=1;exitX=1;exitY=1;exitDx=0;exitDy=0;entryX=0.317;entryY=0.064;entryDx=0;entryDy=0;entryPerimeter=0;endArrow=none;startFill=0;" edge="1" parent="1" source="4hJ10KiGVq28Ic1PhPiy-1" target="4hJ10KiGVq28Ic1PhPiy-37">
          <mxGeometry relative="1" as="geometry" />
        </mxCell>
        <mxCell id="CCO-kKmTmHaHIhjf0m-4-97" style="edgeStyle=orthogonalEdgeStyle;rounded=0;orthogonalLoop=1;jettySize=auto;html=1;exitX=0;exitY=0.25;exitDx=0;exitDy=0;entryX=0.975;entryY=0.842;entryDx=0;entryDy=0;entryPerimeter=0;endArrow=none;startFill=0;" edge="1" parent="1" source="4hJ10KiGVq28Ic1PhPiy-6" target="4hJ10KiGVq28Ic1PhPiy-7">
          <mxGeometry relative="1" as="geometry" />
        </mxCell>
        <mxCell id="CCO-kKmTmHaHIhjf0m-4-102" value="" style="endArrow=none;html=1;rounded=0;entryX=0.5;entryY=1;entryDx=0;entryDy=0;exitX=0.5;exitY=0;exitDx=0;exitDy=0;" edge="1" parent="1" source="4hJ10KiGVq28Ic1PhPiy-45" target="4hJ10KiGVq28Ic1PhPiy-6">
          <mxGeometry width="50" height="50" relative="1" as="geometry">
            <mxPoint x="100" y="440" as="sourcePoint" />
            <mxPoint x="150" y="390" as="targetPoint" />
          </mxGeometry>
        </mxCell>
        <mxCell id="CCO-kKmTmHaHIhjf0m-4-121" value="" style="rounded=0;whiteSpace=wrap;html=1;textShadow=0;labelBorderColor=none;labelBackgroundColor=none;gradientColor=none;fillColor=none;" vertex="1" parent="1">
          <mxGeometry x="465" y="-115" width="130" height="70" as="geometry" />
        </mxCell>
        <mxCell id="CCO-kKmTmHaHIhjf0m-4-126" value="" style="rounded=0;whiteSpace=wrap;html=1;textShadow=0;labelBorderColor=none;labelBackgroundColor=none;gradientColor=none;fillColor=none;" vertex="1" parent="1">
          <mxGeometry x="-240" y="-115" width="130" height="70" as="geometry" />
        </mxCell>
        <mxCell id="CCO-kKmTmHaHIhjf0m-4-128" style="edgeStyle=orthogonalEdgeStyle;rounded=0;orthogonalLoop=1;jettySize=auto;html=1;exitX=0.75;exitY=0;exitDx=0;exitDy=0;entryX=0.714;entryY=1;entryDx=0;entryDy=0;entryPerimeter=0;endArrow=none;startFill=0;" edge="1" parent="1" source="4hJ10KiGVq28Ic1PhPiy-41" target="CCO-kKmTmHaHIhjf0m-4-7">
          <mxGeometry relative="1" as="geometry" />
        </mxCell>
        <mxCell id="CCO-kKmTmHaHIhjf0m-4-129" style="edgeStyle=orthogonalEdgeStyle;rounded=0;orthogonalLoop=1;jettySize=auto;html=1;exitX=0.25;exitY=0;exitDx=0;exitDy=0;entryX=0.722;entryY=0.808;entryDx=0;entryDy=0;entryPerimeter=0;endArrow=none;startFill=0;" edge="1" parent="1" source="4hJ10KiGVq28Ic1PhPiy-41" target="4hJ10KiGVq28Ic1PhPiy-97">
          <mxGeometry relative="1" as="geometry" />
        </mxCell>
        <mxCell id="CCO-kKmTmHaHIhjf0m-4-145" value="" style="endArrow=none;html=1;rounded=0;exitX=1;exitY=0.5;exitDx=0;exitDy=0;entryX=0;entryY=0.5;entryDx=0;entryDy=0;" edge="1" parent="1" source="CCO-kKmTmHaHIhjf0m-4-181" target="CCO-kKmTmHaHIhjf0m-4-16">
          <mxGeometry width="50" height="50" relative="1" as="geometry">
            <mxPoint x="820" y="340" as="sourcePoint" />
            <mxPoint x="870" y="290" as="targetPoint" />
          </mxGeometry>
        </mxCell>
        <mxCell id="CCO-kKmTmHaHIhjf0m-4-302" style="edgeStyle=orthogonalEdgeStyle;rounded=0;orthogonalLoop=1;jettySize=auto;html=1;exitX=0.5;exitY=1;exitDx=0;exitDy=0;entryX=0.5;entryY=0;entryDx=0;entryDy=0;endArrow=none;startFill=0;" edge="1" parent="1" source="CCO-kKmTmHaHIhjf0m-4-148" target="CCO-kKmTmHaHIhjf0m-4-150">
          <mxGeometry relative="1" as="geometry" />
        </mxCell>
        <mxCell id="CCO-kKmTmHaHIhjf0m-4-304" style="edgeStyle=orthogonalEdgeStyle;rounded=0;orthogonalLoop=1;jettySize=auto;html=1;exitX=0.25;exitY=0;exitDx=0;exitDy=0;entryX=1;entryY=1;entryDx=0;entryDy=0;endArrow=none;startFill=0;" edge="1" parent="1" source="CCO-kKmTmHaHIhjf0m-4-148" target="CCO-kKmTmHaHIhjf0m-4-152">
          <mxGeometry relative="1" as="geometry" />
        </mxCell>
        <mxCell id="CCO-kKmTmHaHIhjf0m-4-148" value="Pago" style="rounded=0;whiteSpace=wrap;html=1;" vertex="1" parent="1">
          <mxGeometry x="445.0000000000001" y="768.75" width="120" height="60" as="geometry" />
        </mxCell>
        <mxCell id="CCO-kKmTmHaHIhjf0m-4-149" value="monto_pagado" style="ellipse;whiteSpace=wrap;html=1;" vertex="1" parent="1">
          <mxGeometry x="550" y="858.75" width="90" height="40" as="geometry" />
        </mxCell>
        <mxCell id="CCO-kKmTmHaHIhjf0m-4-150" value="&lt;u&gt;id_pago&lt;/u&gt;" style="ellipse;whiteSpace=wrap;html=1;" vertex="1" parent="1">
          <mxGeometry x="435.0000000000001" y="858.75" width="90" height="40" as="geometry" />
        </mxCell>
        <mxCell id="CCO-kKmTmHaHIhjf0m-4-151" value="fecha" style="ellipse;whiteSpace=wrap;html=1;" vertex="1" parent="1">
          <mxGeometry x="520" y="705" width="74.17" height="40" as="geometry" />
        </mxCell>
        <mxCell id="CCO-kKmTmHaHIhjf0m-4-152" value="hora" style="ellipse;whiteSpace=wrap;html=1;" vertex="1" parent="1">
          <mxGeometry x="420" y="705" width="65" height="40" as="geometry" />
        </mxCell>
        <mxCell id="CCO-kKmTmHaHIhjf0m-4-153" value="" style="endArrow=none;html=1;rounded=0;entryX=0;entryY=0.5;entryDx=0;entryDy=0;exitX=1;exitY=0.5;exitDx=0;exitDy=0;" edge="1" parent="1" source="CCO-kKmTmHaHIhjf0m-4-183" target="CCO-kKmTmHaHIhjf0m-4-148">
          <mxGeometry width="50" height="50" relative="1" as="geometry">
            <mxPoint x="215.0000000000001" y="717.5" as="sourcePoint" />
            <mxPoint x="265.0000000000001" y="667.5" as="targetPoint" />
          </mxGeometry>
        </mxCell>
        <mxCell id="CCO-kKmTmHaHIhjf0m-4-156" value="" style="endArrow=none;html=1;rounded=0;exitX=1;exitY=0.5;exitDx=0;exitDy=0;entryX=0;entryY=0.5;entryDx=0;entryDy=0;" edge="1" parent="1" source="CCO-kKmTmHaHIhjf0m-4-185" target="4hJ10KiGVq28Ic1PhPiy-89">
          <mxGeometry width="50" height="50" relative="1" as="geometry">
            <mxPoint x="625" y="787.5" as="sourcePoint" />
            <mxPoint x="675" y="737.5" as="targetPoint" />
          </mxGeometry>
        </mxCell>
        <mxCell id="CCO-kKmTmHaHIhjf0m-4-160" value="" style="endArrow=none;html=1;rounded=0;exitX=1;exitY=0;exitDx=0;exitDy=0;entryX=0;entryY=1;entryDx=0;entryDy=0;" edge="1" parent="1" source="CCO-kKmTmHaHIhjf0m-4-177" target="4hJ10KiGVq28Ic1PhPiy-103">
          <mxGeometry width="50" height="50" relative="1" as="geometry">
            <mxPoint x="390" y="390" as="sourcePoint" />
            <mxPoint x="440" y="340" as="targetPoint" />
          </mxGeometry>
        </mxCell>
        <mxCell id="CCO-kKmTmHaHIhjf0m-4-161" value="" style="endArrow=none;html=1;rounded=0;exitX=0.75;exitY=0;exitDx=0;exitDy=0;entryX=0.391;entryY=1.006;entryDx=0;entryDy=0;entryPerimeter=0;" edge="1" parent="1" source="CCO-kKmTmHaHIhjf0m-4-168" target="4hJ10KiGVq28Ic1PhPiy-43">
          <mxGeometry width="50" height="50" relative="1" as="geometry">
            <mxPoint x="1750" y="668.75" as="sourcePoint" />
            <mxPoint x="1800" y="618.75" as="targetPoint" />
          </mxGeometry>
        </mxCell>
        <mxCell id="CCO-kKmTmHaHIhjf0m-4-162" value="" style="endArrow=none;html=1;rounded=0;entryX=0.641;entryY=1.043;entryDx=0;entryDy=0;entryPerimeter=0;exitX=0.25;exitY=0;exitDx=0;exitDy=0;" edge="1" parent="1" source="CCO-kKmTmHaHIhjf0m-4-170" target="4hJ10KiGVq28Ic1PhPiy-43">
          <mxGeometry width="50" height="50" relative="1" as="geometry">
            <mxPoint x="1830" y="718.75" as="sourcePoint" />
            <mxPoint x="1880" y="668.75" as="targetPoint" />
          </mxGeometry>
        </mxCell>
        <mxCell id="CCO-kKmTmHaHIhjf0m-4-163" value="" style="endArrow=none;html=1;rounded=0;exitX=0.5;exitY=0;exitDx=0;exitDy=0;entryX=0.5;entryY=1;entryDx=0;entryDy=0;" edge="1" parent="1" source="CCO-kKmTmHaHIhjf0m-4-166" target="CCO-kKmTmHaHIhjf0m-4-1">
          <mxGeometry width="50" height="50" relative="1" as="geometry">
            <mxPoint x="-420" y="990" as="sourcePoint" />
            <mxPoint x="-370" y="940" as="targetPoint" />
          </mxGeometry>
        </mxCell>
        <mxCell id="CCO-kKmTmHaHIhjf0m-4-165" value="" style="endArrow=none;html=1;rounded=0;entryX=0.5;entryY=1;entryDx=0;entryDy=0;exitX=0.5;exitY=0;exitDx=0;exitDy=0;" edge="1" parent="1" source="CCO-kKmTmHaHIhjf0m-4-187" target="4hJ10KiGVq28Ic1PhPiy-69">
          <mxGeometry width="50" height="50" relative="1" as="geometry">
            <mxPoint x="205.0000000000001" y="1067.5" as="sourcePoint" />
            <mxPoint x="255.0000000000001" y="1017.5" as="targetPoint" />
          </mxGeometry>
        </mxCell>
        <mxCell id="CCO-kKmTmHaHIhjf0m-4-167" value="" style="endArrow=none;html=1;rounded=0;exitX=0.5;exitY=0;exitDx=0;exitDy=0;entryX=0.5;entryY=1;entryDx=0;entryDy=0;" edge="1" parent="1" source="CCO-kKmTmHaHIhjf0m-4-13" target="CCO-kKmTmHaHIhjf0m-4-166">
          <mxGeometry width="50" height="50" relative="1" as="geometry">
            <mxPoint x="-776" y="1070" as="sourcePoint" />
            <mxPoint x="-775" y="860" as="targetPoint" />
          </mxGeometry>
        </mxCell>
        <mxCell id="CCO-kKmTmHaHIhjf0m-4-166" value="" style="rhombus;whiteSpace=wrap;html=1;" vertex="1" parent="1">
          <mxGeometry x="-801.25" y="950" width="50" height="50" as="geometry" />
        </mxCell>
        <mxCell id="CCO-kKmTmHaHIhjf0m-4-169" value="" style="endArrow=none;html=1;rounded=0;exitX=0.75;exitY=0;exitDx=0;exitDy=0;entryX=0.391;entryY=1.006;entryDx=0;entryDy=0;entryPerimeter=0;" edge="1" parent="1" source="4hJ10KiGVq28Ic1PhPiy-51" target="CCO-kKmTmHaHIhjf0m-4-168">
          <mxGeometry width="50" height="50" relative="1" as="geometry">
            <mxPoint x="1510" y="728.75" as="sourcePoint" />
            <mxPoint x="1615" y="508.75" as="targetPoint" />
          </mxGeometry>
        </mxCell>
        <mxCell id="CCO-kKmTmHaHIhjf0m-4-168" value="" style="rhombus;whiteSpace=wrap;html=1;" vertex="1" parent="1">
          <mxGeometry x="1535" y="598.75" width="50" height="50" as="geometry" />
        </mxCell>
        <mxCell id="CCO-kKmTmHaHIhjf0m-4-171" value="" style="endArrow=none;html=1;rounded=0;entryX=0.641;entryY=1.043;entryDx=0;entryDy=0;entryPerimeter=0;exitX=0.25;exitY=0;exitDx=0;exitDy=0;" edge="1" parent="1" source="4hJ10KiGVq28Ic1PhPiy-57" target="CCO-kKmTmHaHIhjf0m-4-170">
          <mxGeometry width="50" height="50" relative="1" as="geometry">
            <mxPoint x="1777" y="728.75" as="sourcePoint" />
            <mxPoint x="1645" y="511.75" as="targetPoint" />
          </mxGeometry>
        </mxCell>
        <mxCell id="CCO-kKmTmHaHIhjf0m-4-170" value="" style="rhombus;whiteSpace=wrap;html=1;" vertex="1" parent="1">
          <mxGeometry x="1688.32" y="593.75" width="50" height="50" as="geometry" />
        </mxCell>
        <mxCell id="CCO-kKmTmHaHIhjf0m-4-180" value="" style="endArrow=none;html=1;rounded=0;exitX=1;exitY=0;exitDx=0;exitDy=0;entryX=0;entryY=1;entryDx=0;entryDy=0;" edge="1" parent="1" source="4hJ10KiGVq28Ic1PhPiy-45" target="CCO-kKmTmHaHIhjf0m-4-177">
          <mxGeometry width="50" height="50" relative="1" as="geometry">
            <mxPoint x="140" y="440" as="sourcePoint" />
            <mxPoint x="510" y="310" as="targetPoint" />
          </mxGeometry>
        </mxCell>
        <mxCell id="CCO-kKmTmHaHIhjf0m-4-177" value="" style="rhombus;whiteSpace=wrap;html=1;" vertex="1" parent="1">
          <mxGeometry x="300" y="350" width="50" height="50" as="geometry" />
        </mxCell>
        <mxCell id="CCO-kKmTmHaHIhjf0m-4-182" value="" style="endArrow=none;html=1;rounded=0;exitX=1;exitY=0.5;exitDx=0;exitDy=0;entryX=0;entryY=0.5;entryDx=0;entryDy=0;" edge="1" parent="1" source="4hJ10KiGVq28Ic1PhPiy-103" target="CCO-kKmTmHaHIhjf0m-4-181">
          <mxGeometry width="50" height="50" relative="1" as="geometry">
            <mxPoint x="630" y="280" as="sourcePoint" />
            <mxPoint x="1080" y="180" as="targetPoint" />
          </mxGeometry>
        </mxCell>
        <mxCell id="CCO-kKmTmHaHIhjf0m-4-181" value="" style="rhombus;whiteSpace=wrap;html=1;" vertex="1" parent="1">
          <mxGeometry x="860" y="195" width="50" height="50" as="geometry" />
        </mxCell>
        <mxCell id="CCO-kKmTmHaHIhjf0m-4-184" value="" style="endArrow=none;html=1;rounded=0;entryX=0;entryY=0.5;entryDx=0;entryDy=0;exitX=1;exitY=0.5;exitDx=0;exitDy=0;" edge="1" parent="1" source="4hJ10KiGVq28Ic1PhPiy-69" target="CCO-kKmTmHaHIhjf0m-4-183">
          <mxGeometry width="50" height="50" relative="1" as="geometry">
            <mxPoint x="140.0000000000001" y="797.5" as="sourcePoint" />
            <mxPoint x="445.0000000000001" y="798.5" as="targetPoint" />
          </mxGeometry>
        </mxCell>
        <mxCell id="CCO-kKmTmHaHIhjf0m-4-183" value="" style="rhombus;whiteSpace=wrap;html=1;" vertex="1" parent="1">
          <mxGeometry x="275.0000000000001" y="772.5" width="50" height="50" as="geometry" />
        </mxCell>
        <mxCell id="CCO-kKmTmHaHIhjf0m-4-186" value="" style="endArrow=none;html=1;rounded=0;exitX=1;exitY=0.5;exitDx=0;exitDy=0;entryX=0;entryY=0.5;entryDx=0;entryDy=0;" edge="1" parent="1" source="CCO-kKmTmHaHIhjf0m-4-148" target="CCO-kKmTmHaHIhjf0m-4-185">
          <mxGeometry width="50" height="50" relative="1" as="geometry">
            <mxPoint x="565" y="798.5" as="sourcePoint" />
            <mxPoint x="925" y="798.5" as="targetPoint" />
          </mxGeometry>
        </mxCell>
        <mxCell id="CCO-kKmTmHaHIhjf0m-4-185" value="" style="rhombus;whiteSpace=wrap;html=1;" vertex="1" parent="1">
          <mxGeometry x="725" y="772.5" width="50" height="50" as="geometry" />
        </mxCell>
        <mxCell id="CCO-kKmTmHaHIhjf0m-4-188" value="" style="endArrow=none;html=1;rounded=0;entryX=1;entryY=1;entryDx=0;entryDy=0;exitX=0;exitY=0;exitDx=0;exitDy=0;" edge="1" parent="1" source="CCO-kKmTmHaHIhjf0m-4-189" target="4hJ10KiGVq28Ic1PhPiy-103">
          <mxGeometry width="50" height="50" relative="1" as="geometry">
            <mxPoint x="750" y="500" as="sourcePoint" />
            <mxPoint x="800" y="450" as="targetPoint" />
          </mxGeometry>
        </mxCell>
        <mxCell id="CCO-kKmTmHaHIhjf0m-4-190" value="" style="endArrow=none;html=1;rounded=0;entryX=1;entryY=1;entryDx=0;entryDy=0;exitX=0;exitY=0;exitDx=0;exitDy=0;" edge="1" parent="1" source="4hJ10KiGVq28Ic1PhPiy-50" target="CCO-kKmTmHaHIhjf0m-4-189">
          <mxGeometry width="50" height="50" relative="1" as="geometry">
            <mxPoint x="920" y="440" as="sourcePoint" />
            <mxPoint x="630" y="310" as="targetPoint" />
          </mxGeometry>
        </mxCell>
        <mxCell id="CCO-kKmTmHaHIhjf0m-4-189" value="" style="rhombus;whiteSpace=wrap;html=1;" vertex="1" parent="1">
          <mxGeometry x="760.83" y="350" width="50" height="50" as="geometry" />
        </mxCell>
        <mxCell id="CCO-kKmTmHaHIhjf0m-4-187" value="" style="rhombus;whiteSpace=wrap;html=1;" vertex="1" parent="1">
          <mxGeometry x="60" y="905" width="50" height="50" as="geometry" />
        </mxCell>
        <mxCell id="CCO-kKmTmHaHIhjf0m-4-204" style="edgeStyle=orthogonalEdgeStyle;rounded=0;orthogonalLoop=1;jettySize=auto;html=1;exitX=0.5;exitY=1;exitDx=0;exitDy=0;" edge="1" parent="1" source="CCO-kKmTmHaHIhjf0m-4-152" target="CCO-kKmTmHaHIhjf0m-4-152">
          <mxGeometry relative="1" as="geometry" />
        </mxCell>
        <mxCell id="CCO-kKmTmHaHIhjf0m-4-205" value="descripcion" style="ellipse;whiteSpace=wrap;html=1;" vertex="1" parent="1">
          <mxGeometry x="940" y="690" width="90" height="40" as="geometry" />
        </mxCell>
        <mxCell id="CCO-kKmTmHaHIhjf0m-4-209" value="puntos_acumulados" style="ellipse;whiteSpace=wrap;html=1;dashed=1;" vertex="1" parent="1">
          <mxGeometry x="-807.5" y="630" width="105" height="40" as="geometry" />
        </mxCell>
        <mxCell id="CCO-kKmTmHaHIhjf0m-4-212" value="" style="endArrow=none;html=1;rounded=0;exitX=0.902;exitY=-0.071;exitDx=0;exitDy=0;exitPerimeter=0;entryX=0.25;entryY=1;entryDx=0;entryDy=0;" edge="1" parent="1" source="CCO-kKmTmHaHIhjf0m-4-1" target="4hJ10KiGVq28Ic1PhPiy-41">
          <mxGeometry width="50" height="50" relative="1" as="geometry">
            <mxPoint x="-420" y="630" as="sourcePoint" />
            <mxPoint x="-370" y="580" as="targetPoint" />
          </mxGeometry>
        </mxCell>
        <mxCell id="CCO-kKmTmHaHIhjf0m-4-213" value="" style="rhombus;whiteSpace=wrap;html=1;" vertex="1" parent="1">
          <mxGeometry x="-630" y="670" width="50" height="50" as="geometry" />
        </mxCell>
        <mxCell id="CCO-kKmTmHaHIhjf0m-4-219" style="edgeStyle=orthogonalEdgeStyle;rounded=0;orthogonalLoop=1;jettySize=auto;html=1;exitX=1;exitY=1;exitDx=0;exitDy=0;entryX=0.295;entryY=0;entryDx=0;entryDy=0;entryPerimeter=0;endArrow=none;startFill=0;" edge="1" parent="1" source="CCO-kKmTmHaHIhjf0m-4-13" target="CCO-kKmTmHaHIhjf0m-4-15">
          <mxGeometry relative="1" as="geometry" />
        </mxCell>
        <mxCell id="CCO-kKmTmHaHIhjf0m-4-221" style="edgeStyle=orthogonalEdgeStyle;rounded=0;orthogonalLoop=1;jettySize=auto;html=1;exitX=0;exitY=0.75;exitDx=0;exitDy=0;entryX=0.6;entryY=0;entryDx=0;entryDy=0;entryPerimeter=0;endArrow=none;startFill=0;" edge="1" parent="1" source="CCO-kKmTmHaHIhjf0m-4-8" target="CCO-kKmTmHaHIhjf0m-4-11">
          <mxGeometry relative="1" as="geometry" />
        </mxCell>
        <mxCell id="CCO-kKmTmHaHIhjf0m-4-223" style="edgeStyle=orthogonalEdgeStyle;rounded=0;orthogonalLoop=1;jettySize=auto;html=1;exitX=0.75;exitY=1;exitDx=0;exitDy=0;entryX=0.369;entryY=0.05;entryDx=0;entryDy=0;entryPerimeter=0;endArrow=none;startFill=0;" edge="1" parent="1" source="CCO-kKmTmHaHIhjf0m-4-8" target="CCO-kKmTmHaHIhjf0m-4-9">
          <mxGeometry relative="1" as="geometry" />
        </mxCell>
        <mxCell id="CCO-kKmTmHaHIhjf0m-4-230" value="N" style="text;html=1;align=center;verticalAlign=middle;whiteSpace=wrap;rounded=0;" vertex="1" parent="1">
          <mxGeometry x="-110" y="-70" width="45" height="30" as="geometry" />
        </mxCell>
        <mxCell id="CCO-kKmTmHaHIhjf0m-4-232" value="1" style="text;html=1;align=center;verticalAlign=middle;whiteSpace=wrap;rounded=0;" vertex="1" parent="1">
          <mxGeometry x="57.49000000000001" y="-70" width="45" height="30" as="geometry" />
        </mxCell>
        <mxCell id="CCO-kKmTmHaHIhjf0m-4-233" value="N" style="text;html=1;align=center;verticalAlign=middle;whiteSpace=wrap;rounded=0;" vertex="1" parent="1">
          <mxGeometry x="250" y="-70" width="45" height="30" as="geometry" />
        </mxCell>
        <mxCell id="CCO-kKmTmHaHIhjf0m-4-234" value="1" style="text;html=1;align=center;verticalAlign=middle;whiteSpace=wrap;rounded=0;" vertex="1" parent="1">
          <mxGeometry x="410" y="-130" width="45" height="30" as="geometry" />
        </mxCell>
        <mxCell id="CCO-kKmTmHaHIhjf0m-4-235" value="N" style="text;html=1;align=center;verticalAlign=middle;whiteSpace=wrap;rounded=0;" vertex="1" parent="1">
          <mxGeometry x="597.5" y="-130" width="45" height="30" as="geometry" />
        </mxCell>
        <mxCell id="CCO-kKmTmHaHIhjf0m-4-236" value="1" style="text;html=1;align=center;verticalAlign=middle;whiteSpace=wrap;rounded=0;" vertex="1" parent="1">
          <mxGeometry x="775" y="-60" width="45" height="30" as="geometry" />
        </mxCell>
        <mxCell id="CCO-kKmTmHaHIhjf0m-4-237" value="1" style="text;html=1;align=center;verticalAlign=middle;whiteSpace=wrap;rounded=0;" vertex="1" parent="1">
          <mxGeometry x="-169.99999999999997" y="-30" width="45" height="30" as="geometry" />
        </mxCell>
        <mxCell id="CCO-kKmTmHaHIhjf0m-4-238" value="1" style="text;html=1;align=center;verticalAlign=middle;whiteSpace=wrap;rounded=0;" vertex="1" parent="1">
          <mxGeometry x="-8.329999999999984" y="155" width="45" height="30" as="geometry" />
        </mxCell>
        <mxCell id="CCO-kKmTmHaHIhjf0m-4-239" value="1" style="text;html=1;align=center;verticalAlign=middle;whiteSpace=wrap;rounded=0;" vertex="1" parent="1">
          <mxGeometry x="-302.5" y="-60" width="45" height="30" as="geometry" />
        </mxCell>
        <mxCell id="CCO-kKmTmHaHIhjf0m-4-240" value="N" style="text;html=1;align=center;verticalAlign=middle;whiteSpace=wrap;rounded=0;" vertex="1" parent="1">
          <mxGeometry x="-460" y="180" width="45" height="30" as="geometry" />
        </mxCell>
        <mxCell id="CCO-kKmTmHaHIhjf0m-4-241" value="N" style="text;html=1;align=center;verticalAlign=middle;whiteSpace=wrap;rounded=0;" vertex="1" parent="1">
          <mxGeometry x="37.5" y="415" width="45" height="30" as="geometry" />
        </mxCell>
        <mxCell id="CCO-kKmTmHaHIhjf0m-4-242" value="1" style="text;html=1;align=center;verticalAlign=middle;whiteSpace=wrap;rounded=0;" vertex="1" parent="1">
          <mxGeometry x="90.00000000000001" y="255" width="45" height="30" as="geometry" />
        </mxCell>
        <mxCell id="CCO-kKmTmHaHIhjf0m-4-244" value="historial de puntos ?" style="text;html=1;align=center;verticalAlign=middle;whiteSpace=wrap;rounded=0;" vertex="1" parent="1">
          <mxGeometry x="1890" y="462.5" width="75" height="30" as="geometry" />
        </mxCell>
        <mxCell id="CCO-kKmTmHaHIhjf0m-4-245" value="" style="endArrow=none;html=1;rounded=0;exitX=1;exitY=0.5;exitDx=0;exitDy=0;entryX=0;entryY=0.5;entryDx=0;entryDy=0;" edge="1" parent="1" source="4hJ10KiGVq28Ic1PhPiy-50" target="4hJ10KiGVq28Ic1PhPiy-43">
          <mxGeometry width="50" height="50" relative="1" as="geometry">
            <mxPoint x="1550" y="650" as="sourcePoint" />
            <mxPoint x="1600" y="600" as="targetPoint" />
          </mxGeometry>
        </mxCell>
        <mxCell id="CCO-kKmTmHaHIhjf0m-4-246" value="" style="rhombus;whiteSpace=wrap;html=1;" vertex="1" parent="1">
          <mxGeometry x="1290" y="448.75" width="50" height="50" as="geometry" />
        </mxCell>
        <mxCell id="CCO-kKmTmHaHIhjf0m-4-247" value="" style="endArrow=none;html=1;rounded=0;entryX=0.5;entryY=1;entryDx=0;entryDy=0;exitX=0.5;exitY=0;exitDx=0;exitDy=0;" edge="1" parent="1" source="CCO-kKmTmHaHIhjf0m-4-248" target="4hJ10KiGVq28Ic1PhPiy-45">
          <mxGeometry width="50" height="50" relative="1" as="geometry">
            <mxPoint x="130" y="630" as="sourcePoint" />
            <mxPoint x="180" y="580" as="targetPoint" />
          </mxGeometry>
        </mxCell>
        <mxCell id="CCO-kKmTmHaHIhjf0m-4-249" value="" style="endArrow=none;html=1;rounded=0;entryX=0.5;entryY=1;entryDx=0;entryDy=0;exitX=0.5;exitY=0;exitDx=0;exitDy=0;" edge="1" parent="1" source="4hJ10KiGVq28Ic1PhPiy-69" target="CCO-kKmTmHaHIhjf0m-4-248">
          <mxGeometry width="50" height="50" relative="1" as="geometry">
            <mxPoint x="85" y="760" as="sourcePoint" />
            <mxPoint x="80" y="500" as="targetPoint" />
          </mxGeometry>
        </mxCell>
        <mxCell id="CCO-kKmTmHaHIhjf0m-4-248" value="" style="rhombus;whiteSpace=wrap;html=1;" vertex="1" parent="1">
          <mxGeometry x="60.00000000000001" y="588.75" width="50" height="50" as="geometry" />
        </mxCell>
        <mxCell id="CCO-kKmTmHaHIhjf0m-4-250" value="" style="rhombus;whiteSpace=wrap;html=1;" vertex="1" parent="1">
          <mxGeometry x="54.99000000000001" y="310" width="50" height="50" as="geometry" />
        </mxCell>
        <mxCell id="CCO-kKmTmHaHIhjf0m-4-251" value="" style="endArrow=none;html=1;rounded=0;entryX=0;entryY=0.5;entryDx=0;entryDy=0;exitX=1;exitY=0.75;exitDx=0;exitDy=0;" edge="1" parent="1" source="4hJ10KiGVq28Ic1PhPiy-41" target="4hJ10KiGVq28Ic1PhPiy-45">
          <mxGeometry width="50" height="50" relative="1" as="geometry">
            <mxPoint x="-250" y="620" as="sourcePoint" />
            <mxPoint x="-200" y="570" as="targetPoint" />
          </mxGeometry>
        </mxCell>
        <mxCell id="CCO-kKmTmHaHIhjf0m-4-252" value="" style="rhombus;whiteSpace=wrap;html=1;" vertex="1" parent="1">
          <mxGeometry x="-247.5" y="515" width="50" height="50" as="geometry" />
        </mxCell>
        <mxCell id="CCO-kKmTmHaHIhjf0m-4-253" value="N" style="text;html=1;align=center;verticalAlign=middle;whiteSpace=wrap;rounded=0;" vertex="1" parent="1">
          <mxGeometry x="495" y="321.25" width="30" height="18.75" as="geometry" />
        </mxCell>
        <mxCell id="CCO-kKmTmHaHIhjf0m-4-254" value="N" style="text;html=1;align=center;verticalAlign=middle;whiteSpace=wrap;rounded=0;" vertex="1" parent="1">
          <mxGeometry x="122.5" y="410" width="45" height="30" as="geometry" />
        </mxCell>
        <mxCell id="CCO-kKmTmHaHIhjf0m-4-256" value="1" style="text;html=1;align=center;verticalAlign=middle;whiteSpace=wrap;rounded=0;" vertex="1" parent="1">
          <mxGeometry x="1040" y="185" width="45" height="30" as="geometry" />
        </mxCell>
        <mxCell id="CCO-kKmTmHaHIhjf0m-4-257" value="N" style="text;html=1;align=center;verticalAlign=middle;whiteSpace=wrap;rounded=0;" vertex="1" parent="1">
          <mxGeometry x="625.83" y="240" width="45" height="30" as="geometry" />
        </mxCell>
        <mxCell id="CCO-kKmTmHaHIhjf0m-4-258" value="N" style="text;html=1;align=center;verticalAlign=middle;whiteSpace=wrap;rounded=0;" vertex="1" parent="1">
          <mxGeometry x="867.5" y="426.25" width="35" height="23.75" as="geometry" />
        </mxCell>
        <mxCell id="CCO-kKmTmHaHIhjf0m-4-260" value="N" style="text;html=1;align=center;verticalAlign=middle;whiteSpace=wrap;rounded=0;" vertex="1" parent="1">
          <mxGeometry x="612.5" y="318.12" width="30" height="25" as="geometry" />
        </mxCell>
        <mxCell id="CCO-kKmTmHaHIhjf0m-4-261" value="" style="endArrow=none;html=1;rounded=0;entryX=0;entryY=0.5;entryDx=0;entryDy=0;exitX=1;exitY=0.5;exitDx=0;exitDy=0;" edge="1" parent="1" source="CCO-kKmTmHaHIhjf0m-4-262" target="4hJ10KiGVq28Ic1PhPiy-50">
          <mxGeometry width="50" height="50" relative="1" as="geometry">
            <mxPoint x="490" y="500" as="sourcePoint" />
            <mxPoint x="540" y="450" as="targetPoint" />
          </mxGeometry>
        </mxCell>
        <mxCell id="CCO-kKmTmHaHIhjf0m-4-263" value="" style="endArrow=none;html=1;rounded=0;entryX=0;entryY=0.5;entryDx=0;entryDy=0;exitX=1;exitY=0.5;exitDx=0;exitDy=0;" edge="1" parent="1" source="4hJ10KiGVq28Ic1PhPiy-45" target="CCO-kKmTmHaHIhjf0m-4-262">
          <mxGeometry width="50" height="50" relative="1" as="geometry">
            <mxPoint x="140" y="470" as="sourcePoint" />
            <mxPoint x="920" y="470" as="targetPoint" />
          </mxGeometry>
        </mxCell>
        <mxCell id="CCO-kKmTmHaHIhjf0m-4-262" value="" style="rhombus;whiteSpace=wrap;html=1;" vertex="1" parent="1">
          <mxGeometry x="490.00000000000006" y="445" width="50" height="50" as="geometry" />
        </mxCell>
        <mxCell id="CCO-kKmTmHaHIhjf0m-4-266" value="N" style="text;html=1;align=center;verticalAlign=middle;whiteSpace=wrap;rounded=0;" vertex="1" parent="1">
          <mxGeometry x="885" y="476.25" width="35" height="23.75" as="geometry" />
        </mxCell>
        <mxCell id="CCO-kKmTmHaHIhjf0m-4-267" value="1" style="text;html=1;align=center;verticalAlign=middle;whiteSpace=wrap;rounded=0;" vertex="1" parent="1">
          <mxGeometry x="135" y="470" width="45" height="30" as="geometry" />
        </mxCell>
        <mxCell id="CCO-kKmTmHaHIhjf0m-4-268" value="1" style="text;html=1;align=center;verticalAlign=middle;whiteSpace=wrap;rounded=0;" vertex="1" parent="1">
          <mxGeometry x="1537.5" y="473.75" width="45" height="30" as="geometry" />
        </mxCell>
        <mxCell id="CCO-kKmTmHaHIhjf0m-4-269" value="N" style="text;html=1;align=center;verticalAlign=middle;whiteSpace=wrap;rounded=0;" vertex="1" parent="1">
          <mxGeometry x="1040" y="450" width="30" height="17.5" as="geometry" />
        </mxCell>
        <mxCell id="CCO-kKmTmHaHIhjf0m-4-270" value="1" style="text;html=1;align=center;verticalAlign=middle;whiteSpace=wrap;rounded=0;" vertex="1" parent="1">
          <mxGeometry x="1462.5" y="690" width="45" height="30" as="geometry" />
        </mxCell>
        <mxCell id="CCO-kKmTmHaHIhjf0m-4-271" value="N" style="text;html=1;align=center;verticalAlign=middle;whiteSpace=wrap;rounded=0;" vertex="1" parent="1">
          <mxGeometry x="1590" y="506.25" width="35" height="23.75" as="geometry" />
        </mxCell>
        <mxCell id="CCO-kKmTmHaHIhjf0m-4-272" value="N" style="text;html=1;align=center;verticalAlign=middle;whiteSpace=wrap;rounded=0;" vertex="1" parent="1">
          <mxGeometry x="1717.5" y="701.88" width="35" height="23.75" as="geometry" />
        </mxCell>
        <mxCell id="CCO-kKmTmHaHIhjf0m-4-273" value="1" style="text;html=1;align=center;verticalAlign=middle;whiteSpace=wrap;rounded=0;" vertex="1" parent="1">
          <mxGeometry x="1660" y="501.25" width="45" height="30" as="geometry" />
        </mxCell>
        <mxCell id="CCO-kKmTmHaHIhjf0m-4-274" style="edgeStyle=orthogonalEdgeStyle;rounded=0;orthogonalLoop=1;jettySize=auto;html=1;exitX=0.25;exitY=0;exitDx=0;exitDy=0;entryX=0.705;entryY=0.998;entryDx=0;entryDy=0;entryPerimeter=0;endArrow=none;startFill=0;" edge="1" parent="1" source="4hJ10KiGVq28Ic1PhPiy-43" target="4hJ10KiGVq28Ic1PhPiy-54">
          <mxGeometry relative="1" as="geometry" />
        </mxCell>
        <mxCell id="CCO-kKmTmHaHIhjf0m-4-276" style="edgeStyle=orthogonalEdgeStyle;rounded=0;orthogonalLoop=1;jettySize=auto;html=1;exitX=0.75;exitY=0;exitDx=0;exitDy=0;entryX=0.205;entryY=0.965;entryDx=0;entryDy=0;entryPerimeter=0;endArrow=none;startFill=0;" edge="1" parent="1" source="4hJ10KiGVq28Ic1PhPiy-43" target="4hJ10KiGVq28Ic1PhPiy-68">
          <mxGeometry relative="1" as="geometry" />
        </mxCell>
        <mxCell id="CCO-kKmTmHaHIhjf0m-4-279" style="edgeStyle=orthogonalEdgeStyle;rounded=0;orthogonalLoop=1;jettySize=auto;html=1;exitX=1;exitY=0.75;exitDx=0;exitDy=0;entryX=0.045;entryY=0.725;entryDx=0;entryDy=0;entryPerimeter=0;endArrow=none;startFill=0;" edge="1" parent="1" source="4hJ10KiGVq28Ic1PhPiy-43" target="CCO-kKmTmHaHIhjf0m-4-19">
          <mxGeometry relative="1" as="geometry" />
        </mxCell>
        <mxCell id="CCO-kKmTmHaHIhjf0m-4-282" style="edgeStyle=orthogonalEdgeStyle;rounded=0;orthogonalLoop=1;jettySize=auto;html=1;exitX=0.25;exitY=1;exitDx=0;exitDy=0;entryX=0.327;entryY=-0.054;entryDx=0;entryDy=0;entryPerimeter=0;endArrow=none;startFill=0;" edge="1" parent="1" source="4hJ10KiGVq28Ic1PhPiy-57" target="4hJ10KiGVq28Ic1PhPiy-62">
          <mxGeometry relative="1" as="geometry" />
        </mxCell>
        <mxCell id="CCO-kKmTmHaHIhjf0m-4-284" style="edgeStyle=orthogonalEdgeStyle;rounded=0;orthogonalLoop=1;jettySize=auto;html=1;exitX=1;exitY=1;exitDx=0;exitDy=0;entryX=-0.002;entryY=0.7;entryDx=0;entryDy=0;entryPerimeter=0;endArrow=none;startFill=0;" edge="1" parent="1" source="4hJ10KiGVq28Ic1PhPiy-57" target="4hJ10KiGVq28Ic1PhPiy-64">
          <mxGeometry relative="1" as="geometry" />
        </mxCell>
        <mxCell id="CCO-kKmTmHaHIhjf0m-4-287" style="edgeStyle=orthogonalEdgeStyle;rounded=0;orthogonalLoop=1;jettySize=auto;html=1;exitX=0.5;exitY=1;exitDx=0;exitDy=0;entryX=0.408;entryY=-0.008;entryDx=0;entryDy=0;entryPerimeter=0;endArrow=none;startFill=0;" edge="1" parent="1" source="4hJ10KiGVq28Ic1PhPiy-51" target="4hJ10KiGVq28Ic1PhPiy-53">
          <mxGeometry relative="1" as="geometry" />
        </mxCell>
        <mxCell id="CCO-kKmTmHaHIhjf0m-4-290" style="edgeStyle=orthogonalEdgeStyle;rounded=0;orthogonalLoop=1;jettySize=auto;html=1;exitX=0.5;exitY=1;exitDx=0;exitDy=0;entryX=0.317;entryY=0.066;entryDx=0;entryDy=0;entryPerimeter=0;endArrow=none;startFill=0;" edge="1" parent="1" source="4hJ10KiGVq28Ic1PhPiy-50" target="CCO-kKmTmHaHIhjf0m-4-6">
          <mxGeometry relative="1" as="geometry" />
        </mxCell>
        <mxCell id="CCO-kKmTmHaHIhjf0m-4-291" style="edgeStyle=orthogonalEdgeStyle;rounded=0;orthogonalLoop=1;jettySize=auto;html=1;exitX=1;exitY=1;exitDx=0;exitDy=0;entryX=0.01;entryY=0.336;entryDx=0;entryDy=0;entryPerimeter=0;endArrow=none;startFill=0;" edge="1" parent="1" source="4hJ10KiGVq28Ic1PhPiy-50" target="CCO-kKmTmHaHIhjf0m-4-30">
          <mxGeometry relative="1" as="geometry" />
        </mxCell>
        <mxCell id="CCO-kKmTmHaHIhjf0m-4-293" style="edgeStyle=orthogonalEdgeStyle;rounded=0;orthogonalLoop=1;jettySize=auto;html=1;exitX=0.75;exitY=0;exitDx=0;exitDy=0;entryX=0.11;entryY=0.835;entryDx=0;entryDy=0;entryPerimeter=0;endArrow=none;startFill=0;" edge="1" parent="1" source="4hJ10KiGVq28Ic1PhPiy-50" target="4hJ10KiGVq28Ic1PhPiy-75">
          <mxGeometry relative="1" as="geometry" />
        </mxCell>
        <mxCell id="CCO-kKmTmHaHIhjf0m-4-295" style="edgeStyle=orthogonalEdgeStyle;rounded=0;orthogonalLoop=1;jettySize=auto;html=1;exitX=0.25;exitY=0;exitDx=0;exitDy=0;entryX=0.495;entryY=1.089;entryDx=0;entryDy=0;entryPerimeter=0;endArrow=none;startFill=0;" edge="1" parent="1" source="4hJ10KiGVq28Ic1PhPiy-50" target="4hJ10KiGVq28Ic1PhPiy-74">
          <mxGeometry relative="1" as="geometry" />
        </mxCell>
        <mxCell id="CCO-kKmTmHaHIhjf0m-4-297" style="edgeStyle=orthogonalEdgeStyle;rounded=0;orthogonalLoop=1;jettySize=auto;html=1;exitX=1;exitY=1;exitDx=0;exitDy=0;entryX=0.025;entryY=0.341;entryDx=0;entryDy=0;entryPerimeter=0;endArrow=none;startFill=0;" edge="1" parent="1" source="CCO-kKmTmHaHIhjf0m-4-16" target="CCO-kKmTmHaHIhjf0m-4-17">
          <mxGeometry relative="1" as="geometry" />
        </mxCell>
        <mxCell id="CCO-kKmTmHaHIhjf0m-4-298" style="edgeStyle=orthogonalEdgeStyle;rounded=0;orthogonalLoop=1;jettySize=auto;html=1;exitX=1;exitY=0.25;exitDx=0;exitDy=0;entryX=0.066;entryY=0.776;entryDx=0;entryDy=0;entryPerimeter=0;endArrow=none;startFill=0;" edge="1" parent="1" source="CCO-kKmTmHaHIhjf0m-4-16" target="CCO-kKmTmHaHIhjf0m-4-18">
          <mxGeometry relative="1" as="geometry" />
        </mxCell>
        <mxCell id="CCO-kKmTmHaHIhjf0m-4-301" style="edgeStyle=orthogonalEdgeStyle;rounded=0;orthogonalLoop=1;jettySize=auto;html=1;exitX=1;exitY=1;exitDx=0;exitDy=0;entryX=0.249;entryY=0.079;entryDx=0;entryDy=0;entryPerimeter=0;endArrow=none;startFill=0;" edge="1" parent="1" source="CCO-kKmTmHaHIhjf0m-4-148" target="CCO-kKmTmHaHIhjf0m-4-149">
          <mxGeometry relative="1" as="geometry" />
        </mxCell>
        <mxCell id="CCO-kKmTmHaHIhjf0m-4-303" style="edgeStyle=orthogonalEdgeStyle;rounded=0;orthogonalLoop=1;jettySize=auto;html=1;exitX=0.75;exitY=0;exitDx=0;exitDy=0;entryX=0.273;entryY=0.901;entryDx=0;entryDy=0;entryPerimeter=0;endArrow=none;startFill=0;" edge="1" parent="1" source="CCO-kKmTmHaHIhjf0m-4-148" target="CCO-kKmTmHaHIhjf0m-4-151">
          <mxGeometry relative="1" as="geometry" />
        </mxCell>
        <mxCell id="CCO-kKmTmHaHIhjf0m-4-305" style="edgeStyle=orthogonalEdgeStyle;rounded=0;orthogonalLoop=1;jettySize=auto;html=1;exitX=1;exitY=1;exitDx=0;exitDy=0;entryX=0.24;entryY=0.08;entryDx=0;entryDy=0;entryPerimeter=0;endArrow=none;startFill=0;" edge="1" parent="1" source="4hJ10KiGVq28Ic1PhPiy-69" target="4hJ10KiGVq28Ic1PhPiy-70">
          <mxGeometry relative="1" as="geometry" />
        </mxCell>
        <mxCell id="CCO-kKmTmHaHIhjf0m-4-307" style="edgeStyle=orthogonalEdgeStyle;rounded=0;orthogonalLoop=1;jettySize=auto;html=1;exitX=0.25;exitY=0;exitDx=0;exitDy=0;entryX=1.011;entryY=0.646;entryDx=0;entryDy=0;entryPerimeter=0;endArrow=none;startFill=0;" edge="1" parent="1" source="4hJ10KiGVq28Ic1PhPiy-69" target="4hJ10KiGVq28Ic1PhPiy-71">
          <mxGeometry relative="1" as="geometry" />
        </mxCell>
        <mxCell id="CCO-kKmTmHaHIhjf0m-4-308" style="edgeStyle=orthogonalEdgeStyle;rounded=0;orthogonalLoop=1;jettySize=auto;html=1;exitX=0;exitY=0;exitDx=0;exitDy=0;entryX=1.004;entryY=0.688;entryDx=0;entryDy=0;entryPerimeter=0;endArrow=none;startFill=0;" edge="1" parent="1" source="4hJ10KiGVq28Ic1PhPiy-69" target="CCO-kKmTmHaHIhjf0m-4-27">
          <mxGeometry relative="1" as="geometry" />
        </mxCell>
        <mxCell id="CCO-kKmTmHaHIhjf0m-4-323" value="N" style="text;html=1;align=center;verticalAlign=middle;whiteSpace=wrap;rounded=0;" vertex="1" parent="1">
          <mxGeometry x="-8.330000000000002" y="452.5" width="20.01" height="15" as="geometry" />
        </mxCell>
        <mxCell id="CCO-kKmTmHaHIhjf0m-4-324" value="1" style="text;html=1;align=center;verticalAlign=middle;whiteSpace=wrap;rounded=0;" vertex="1" parent="1">
          <mxGeometry x="-427.5" y="598.75" width="45" height="30" as="geometry" />
        </mxCell>
        <mxCell id="CCO-kKmTmHaHIhjf0m-4-325" value="" style="endArrow=none;html=1;rounded=0;exitX=1;exitY=0;exitDx=0;exitDy=0;entryX=0.198;entryY=0.988;entryDx=0;entryDy=0;entryPerimeter=0;" edge="1" parent="1" source="CCO-kKmTmHaHIhjf0m-4-207" target="4hJ10KiGVq28Ic1PhPiy-45">
          <mxGeometry width="50" height="50" relative="1" as="geometry">
            <mxPoint x="-250" y="660" as="sourcePoint" />
            <mxPoint x="-200" y="610" as="targetPoint" />
          </mxGeometry>
        </mxCell>
        <mxCell id="CCO-kKmTmHaHIhjf0m-4-326" value="" style="endArrow=none;html=1;rounded=0;exitX=1;exitY=0;exitDx=0;exitDy=0;entryX=0;entryY=1;entryDx=0;entryDy=0;" edge="1" parent="1" source="CCO-kKmTmHaHIhjf0m-4-8" target="CCO-kKmTmHaHIhjf0m-4-207">
          <mxGeometry width="50" height="50" relative="1" as="geometry">
            <mxPoint x="-422" y="820" as="sourcePoint" />
            <mxPoint x="44" y="499" as="targetPoint" />
          </mxGeometry>
        </mxCell>
        <mxCell id="CCO-kKmTmHaHIhjf0m-4-207" value="" style="rhombus;whiteSpace=wrap;html=1;" vertex="1" parent="1">
          <mxGeometry x="-210" y="630" width="50" height="50" as="geometry" />
        </mxCell>
        <mxCell id="CCO-kKmTmHaHIhjf0m-4-330" style="edgeStyle=orthogonalEdgeStyle;rounded=0;orthogonalLoop=1;jettySize=auto;html=1;exitX=0.5;exitY=1;exitDx=0;exitDy=0;entryX=0.45;entryY=-0.017;entryDx=0;entryDy=0;entryPerimeter=0;endArrow=none;startFill=0;" edge="1" parent="1" source="CCO-kKmTmHaHIhjf0m-4-187" target="4hJ10KiGVq28Ic1PhPiy-83">
          <mxGeometry relative="1" as="geometry" />
        </mxCell>
        <mxCell id="CCO-kKmTmHaHIhjf0m-4-331" value="N" style="text;html=1;align=center;verticalAlign=middle;whiteSpace=wrap;rounded=0;" vertex="1" parent="1">
          <mxGeometry x="-442.51" y="790" width="20.01" height="15" as="geometry" />
        </mxCell>
        <mxCell id="CCO-kKmTmHaHIhjf0m-4-332" value="1" style="text;html=1;align=center;verticalAlign=middle;whiteSpace=wrap;rounded=0;" vertex="1" parent="1">
          <mxGeometry x="-20.819999999999993" y="503.75" width="45" height="30" as="geometry" />
        </mxCell>
        <mxCell id="CCO-kKmTmHaHIhjf0m-4-333" value="1" style="text;html=1;align=center;verticalAlign=middle;whiteSpace=wrap;rounded=0;" vertex="1" parent="1">
          <mxGeometry x="-720" y="780" width="45" height="30" as="geometry" />
        </mxCell>
        <mxCell id="CCO-kKmTmHaHIhjf0m-4-334" value="N" style="text;html=1;align=center;verticalAlign=middle;whiteSpace=wrap;rounded=0;" vertex="1" parent="1">
          <mxGeometry x="-515" y="623.75" width="20.01" height="15" as="geometry" />
        </mxCell>
        <mxCell id="CCO-kKmTmHaHIhjf0m-4-335" value="N" style="text;html=1;align=center;verticalAlign=middle;whiteSpace=wrap;rounded=0;" vertex="1" parent="1">
          <mxGeometry x="-765" y="1050" width="20.01" height="15" as="geometry" />
        </mxCell>
        <mxCell id="CCO-kKmTmHaHIhjf0m-4-337" value="1" style="text;html=1;align=center;verticalAlign=middle;whiteSpace=wrap;rounded=0;" vertex="1" parent="1">
          <mxGeometry x="-771.26" y="870" width="20.01" height="15" as="geometry" />
        </mxCell>
        <mxCell id="CCO-kKmTmHaHIhjf0m-4-338" value="1" style="text;html=1;align=center;verticalAlign=middle;whiteSpace=wrap;rounded=0;" vertex="1" parent="1">
          <mxGeometry x="77.5" y="735" width="45" height="30" as="geometry" />
        </mxCell>
        <mxCell id="CCO-kKmTmHaHIhjf0m-4-339" value="1" style="text;html=1;align=center;verticalAlign=middle;whiteSpace=wrap;rounded=0;" vertex="1" parent="1">
          <mxGeometry x="45" y="506.25" width="45" height="30" as="geometry" />
        </mxCell>
        <mxCell id="CCO-kKmTmHaHIhjf0m-4-340" value="1" style="text;html=1;align=center;verticalAlign=middle;whiteSpace=wrap;rounded=0;" vertex="1" parent="1">
          <mxGeometry x="77.5" y="1010" width="45" height="30" as="geometry" />
        </mxCell>
        <mxCell id="CCO-kKmTmHaHIhjf0m-4-341" value="N" style="text;html=1;align=center;verticalAlign=middle;whiteSpace=wrap;rounded=0;" vertex="1" parent="1">
          <mxGeometry x="77.5" y="822.5" width="45" height="30" as="geometry" />
        </mxCell>
        <mxCell id="CCO-kKmTmHaHIhjf0m-4-342" value="N" style="text;html=1;align=center;verticalAlign=middle;whiteSpace=wrap;rounded=0;" vertex="1" parent="1">
          <mxGeometry x="403" y="798.75" width="45" height="30" as="geometry" />
        </mxCell>
        <mxCell id="CCO-kKmTmHaHIhjf0m-4-343" value="1" style="text;html=1;align=center;verticalAlign=middle;whiteSpace=wrap;rounded=0;" vertex="1" parent="1">
          <mxGeometry x="140" y="792.5" width="45" height="30" as="geometry" />
        </mxCell>
        <mxCell id="CCO-kKmTmHaHIhjf0m-4-344" value="N" style="text;html=1;align=center;verticalAlign=middle;whiteSpace=wrap;rounded=0;" vertex="1" parent="1">
          <mxGeometry x="560" y="800" width="45" height="30" as="geometry" />
        </mxCell>
        <mxCell id="CCO-kKmTmHaHIhjf0m-4-345" value="1" style="text;html=1;align=center;verticalAlign=middle;whiteSpace=wrap;rounded=0;" vertex="1" parent="1">
          <mxGeometry x="885" y="798.75" width="45" height="30" as="geometry" />
        </mxCell>
        <mxCell id="CCO-kKmTmHaHIhjf0m-4-346" value="Los descuentos pueden aplicarse por el total de la venta o por productos especificos" style="text;html=1;align=center;verticalAlign=middle;whiteSpace=wrap;rounded=0;" vertex="1" parent="1">
          <mxGeometry x="491.25" y="348.75" width="157.5" height="51.25" as="geometry" />
        </mxCell>
      </root>
    </mxGraphModel>
  </diagram>
</mxfile>
